<?xml version="1.0" encoding="UTF-8"?>
<svg version="1.1" xmlns="http://www.w3.org/2000/svg" width="500" height="500">
<path d="M0 0 C165 0 330 0 500 0 C500 165 500 330 500 500 C335 500 170 500 0 500 C0 335 0 170 0 0 Z " fill="#FDFDFD" transform="translate(0,0)"/>
<path d="M0 0 C2.93901148 2.93901148 3.19198692 5.62904013 3.3125 9.625 C3.28826986 15.11716527 1.58403896 19.22414228 -1 24 C-1.66 24 -2.32 24 -3 24 C-3 24.66 -3 25.32 -3 26 C-3.66 26 -4.32 26 -5 26 C-4.98839844 26.64324219 -4.97679687 27.28648437 -4.96484375 27.94921875 C-4.89098005 35.34614069 -5.34421605 42.63414095 -6 50 C-6.99 50 -7.98 50 -9 50 C-9.2475 50.7425 -9.495 51.485 -9.75 52.25 C-12.14150117 57.51130258 -15.76519401 59.81222893 -21 62 C-23.74275671 62.25948766 -26.20976024 62.37701608 -28.9375 62.3125 C-29.61490234 62.31572266 -30.29230469 62.31894531 -30.99023438 62.32226562 C-39.55194275 62.23196956 -48.92274159 59.53922247 -55.453125 53.78125 C-61.8806969 46.37980357 -66.29686083 37.3407752 -66.25 27.5 C-66.25515625 26.4171875 -66.2603125 25.334375 -66.265625 24.21875 C-65.92769462 20.12382892 -64.83301657 16.66603314 -63 13 C-60.11830945 14.33294056 -57.82347739 15.86412283 -55.375 17.875 C-52.35433073 20.19945553 -49.57629699 21.6905251 -46 23 C-40.10382167 25.18948995 -35.23291422 28.18969607 -31.29296875 33.1484375 C-29.51621591 37.06695586 -29.63474362 40.44102268 -29.75 44.6875 C-29.75515625 45.45900391 -29.7603125 46.23050781 -29.765625 47.02539062 C-29.84477482 52.68954964 -29.84477482 52.68954964 -31 55 C-36.1103144 53.8545847 -40.37234081 52.54521255 -45 50 C-45 49.34 -45 48.68 -45 48 C-45.5775 47.731875 -46.155 47.46375 -46.75 47.1875 C-49.0325868 45.98280141 -50.9737942 44.59201885 -53 43 C-48.27917625 49.34360692 -42.56679789 53.5187162 -35 56 C-31.87420806 56.24012919 -31.87420806 56.24012919 -28.6875 56.125 C-27.61886719 56.10695312 -26.55023438 56.08890625 -25.44921875 56.0703125 C-24.23685547 56.03550781 -24.23685547 56.03550781 -23 56 C-22.67 54.35 -22.34 52.7 -22 51 C-22.66 51 -23.32 51 -24 51 C-24 46.38 -24 41.76 -24 37 C-24.99 37 -25.98 37 -27 37 C-27.10957031 36.35933594 -27.21914062 35.71867187 -27.33203125 35.05859375 C-28.32884108 29.62071251 -29.69405598 25.01292178 -32 20 C-33.09030026 16.60470253 -33.13373145 13.42870138 -33.125 9.875 C-33.12886719 8.29332031 -33.12886719 8.29332031 -33.1328125 6.6796875 C-33 4 -33 4 -32 2 C-31.34 2 -30.68 2 -30 2 C-29.34 4.64 -28.68 7.28 -28 10 C-27.34 10 -26.68 10 -26 10 C-22 15.41176471 -22 15.41176471 -22 18 C-20.02 18.66 -18.04 19.32 -16 20 C-16 20.66 -16 21.32 -16 22 C-14.68 22 -13.36 22 -12 22 C-11.74089844 21.43796875 -11.48179687 20.8759375 -11.21484375 20.296875 C-9.86888852 17.75211077 -8.27515141 15.56300018 -6.5625 13.25 C-3.49446104 8.94196196 -1.58366029 5.03045035 0 0 Z " fill="#AACE4C" transform="translate(281,158)"/>
<path d="M0 0 C0.66 0 1.32 0 2 0 C5.23438624 8.11184068 5.39148448 18.42654055 3.27734375 26.89453125 C2.33606646 29.07052046 1.26125763 30.99535211 0 33 C-0.32742188 33.680625 -0.65484375 34.36125 -0.9921875 35.0625 C-4.72981362 42.26493281 -11.48398568 46.07274319 -18.7734375 49.18359375 C-22.9717965 50.2458904 -26.87698936 50.25392312 -31.1875 50.1875 C-31.99380859 50.18685547 -32.80011719 50.18621094 -33.63085938 50.18554688 C-37.08311588 50.15971952 -39.69160941 50.10279686 -43 49 C-42.1875 47.0625 -42.1875 47.0625 -41 45 C-37.8956146 43.96520487 -36.09945882 44.01754989 -32.875 44.1875 C-27.76390528 44.26216407 -24.28005335 43.21999162 -19.77734375 40.875 C-18 40 -18 40 -16 40 C-16 39.34 -16 38.68 -16 38 C-16.50789063 38.28875 -17.01578125 38.5775 -17.5390625 38.875 C-21.87808125 41.21514494 -24.93935183 42.50606482 -30 42 C-32.81620455 37.1786578 -32.6024598 32.43719969 -32 27 C-29.9009175 19.91559655 -25.55766866 16.3717791 -19.5625 12.375 C-16.45303792 10.70650815 -13.25162595 9.36910566 -10 8 C-8.3603125 7.1646875 -8.3603125 7.1646875 -6.6875 6.3125 C-4 5 -4 5 -2 5 C-1.34 3.35 -0.68 1.7 0 0 Z " fill="#A9CE47" transform="translate(312,170)"/>
<path d="M0 0 C2.93901148 2.93901148 3.19198692 5.62904013 3.3125 9.625 C3.28826986 15.11716527 1.58403896 19.22414228 -1 24 C-1.66 24 -2.32 24 -3 24 C-3 24.66 -3 25.32 -3 26 C-3.66 26 -4.32 26 -5 26 C-4.98839844 26.64324219 -4.97679687 27.28648437 -4.96484375 27.94921875 C-4.89098005 35.34614069 -5.34421605 42.63414095 -6 50 C-6.66 50 -7.32 50 -8 50 C-7.97679687 49.29875 -7.95359375 48.5975 -7.9296875 47.875 C-7.81497522 41.84441138 -8.25643433 36.77556127 -10 31 C-10.99 31 -11.98 31 -13 31 C-12.8453125 31.71542969 -12.690625 32.43085938 -12.53125 33.16796875 C-10.42701659 44.38538951 -10.42701659 44.38538951 -13.45703125 49.421875 C-16.09471794 52.46493249 -18.64336462 54.76224308 -22 57 C-22.99 56.67 -23.98 56.34 -25 56 C-24.34 56 -23.68 56 -23 56 C-22.67 54.35 -22.34 52.7 -22 51 C-22.66 51 -23.32 51 -24 51 C-24 46.38 -24 41.76 -24 37 C-24.99 37 -25.98 37 -27 37 C-27.10957031 36.35933594 -27.21914062 35.71867187 -27.33203125 35.05859375 C-28.32884108 29.62071251 -29.69405598 25.01292178 -32 20 C-33.09030026 16.60470253 -33.13373145 13.42870138 -33.125 9.875 C-33.12886719 8.29332031 -33.12886719 8.29332031 -33.1328125 6.6796875 C-33 4 -33 4 -32 2 C-31.34 2 -30.68 2 -30 2 C-29.34 4.64 -28.68 7.28 -28 10 C-27.34 10 -26.68 10 -26 10 C-22 15.41176471 -22 15.41176471 -22 18 C-20.02 18.66 -18.04 19.32 -16 20 C-16 20.66 -16 21.32 -16 22 C-14.68 22 -13.36 22 -12 22 C-11.74089844 21.43796875 -11.48179687 20.8759375 -11.21484375 20.296875 C-9.86888852 17.75211077 -8.27515141 15.56300018 -6.5625 13.25 C-3.49446104 8.94196196 -1.58366029 5.03045035 0 0 Z " fill="#F6FCE2" transform="translate(281,158)"/>
<path d="M0 0 C1.98 0 3.96 0 6 0 C6 5.61 6 11.22 6 17 C8.64 17 11.28 17 14 17 C14.33 17.66 14.66 18.32 15 19 C15.33773437 17.87980469 15.67546875 16.75960937 16.0234375 15.60546875 C16.47370046 14.13273364 16.92423553 12.66008169 17.375 11.1875 C17.59671875 10.44951172 17.8184375 9.71152344 18.046875 8.95117188 C18.26601562 8.23896484 18.48515625 7.52675781 18.7109375 6.79296875 C18.90993652 6.1383667 19.10893555 5.48376465 19.31396484 4.80932617 C20 3 20 3 22 0 C23.98 0 25.96 0 28 0 C29.98 6.27 31.96 12.54 34 19 C34.33 12.73 34.66 6.46 35 0 C36.65 0 38.3 0 40 0 C42.35022689 2.93778361 43.81100979 5.43302938 45 9 C45.33 6.03 45.66 3.06 46 0 C47.98 0 49.96 0 52 0 C52 7.59 52 15.18 52 23 C50.02 23 48.04 23 46 23 C43 17.375 43 17.375 43 14 C42.34 14 41.68 14 41 14 C41 16.97 41 19.94 41 23 C36.71 23 32.42 23 28 23 C28 22.01 28 21.02 28 20 C25.69 20 23.38 20 21 20 C21 20.99 21 21.98 21 23 C14.07 23 7.14 23 0 23 C0 15.41 0 7.82 0 0 Z " fill="#4B4B4B" transform="translate(105,239)"/>
<path d="M0 0 C1.4540625 0.0309375 1.4540625 0.0309375 2.9375 0.0625 C5.08114744 6.35661375 7.05159966 12.68636075 8.9375 19.0625 C9.2675 12.7925 9.5975 6.5225 9.9375 0.0625 C22.28960697 -0.43158428 22.28960697 -0.43158428 25.33984375 1.89453125 C27.48212488 4.80153864 27.29944704 6.51541898 26.9375 10.0625 C26.6590625 11.42375 26.6590625 11.42375 26.375 12.8125 C25.69552104 15.08663438 25.69552104 15.08663438 26.9375 17.0625 C26.977492 19.06210012 26.98096799 21.06297242 26.9375 23.0625 C24.9575 23.0625 22.9775 23.0625 20.9375 23.0625 C20.6075 20.7525 20.2775 18.4425 19.9375 16.0625 C18.9475 15.7325 17.9575 15.4025 16.9375 15.0625 C16.9375 17.7025 16.9375 20.3425 16.9375 23.0625 C12.3175 23.0625 7.6975 23.0625 2.9375 23.0625 C2.9375 22.0725 2.9375 21.0825 2.9375 20.0625 C0.6275 20.0625 -1.6825 20.0625 -4.0625 20.0625 C-4.0625 21.0525 -4.0625 22.0425 -4.0625 23.0625 C-6.0425 23.0625 -8.0225 23.0625 -10.0625 23.0625 C-5.3942124 0.11008597 -5.3942124 0.11008597 0 0 Z " fill="#414141" transform="translate(277.0625,238.9375)"/>
<path d="M0 0 C2.31 0 4.62 0 7 0 C7.33 0.99 7.66 1.98 8 3 C8.66 2.01 9.32 1.02 10 0 C12.24658203 -0.34057617 12.24658203 -0.34057617 15.0078125 -0.29296875 C15.99394531 -0.28330078 16.98007812 -0.27363281 17.99609375 -0.26367188 C19.02863281 -0.23853516 20.06117188 -0.21339844 21.125 -0.1875 C22.68541016 -0.16719727 22.68541016 -0.16719727 24.27734375 -0.14648438 C26.85207627 -0.11105228 29.4257833 -0.06165221 32 0 C32 1.98 32 3.96 32 6 C29.36 6 26.72 6 24 6 C24 6.99 24 7.98 24 9 C26.64 9 29.28 9 32 9 C32 10.65 32 12.3 32 14 C29.36 14 26.72 14 24 14 C24 14.99 24 15.98 24 17 C26.64 17 29.28 17 32 17 C32 18.98 32 20.96 32 23 C27.38 23 22.76 23 18 23 C18 15.74 18 8.48 18 1 C17.34 1 16.68 1 16 1 C13.85362898 4.57728503 13.21116757 7.84703779 13 12 C13.92203709 14.36522558 14.91698965 16.70401807 16 19 C16 20.32 16 21.64 16 23 C14.02 23 12.04 23 10 23 C9.34 21.35 8.68 19.7 8 18 C7.67 19.65 7.34 21.3 7 23 C4.69 23 2.38 23 0 23 C0 15.41 0 7.82 0 0 Z " fill="#676767" transform="translate(305,239)"/>
<path d="M0 0 C-0.53190072 5.21262707 -1.68979632 9.29708538 -4 14 C-4.30421875 14.65097656 -4.6084375 15.30195313 -4.921875 15.97265625 C-8.7667744 23.20273883 -15.39584753 27.0351293 -22.7734375 30.18359375 C-26.9717965 31.2458904 -30.87698936 31.25392312 -35.1875 31.1875 C-35.99380859 31.18685547 -36.80011719 31.18621094 -37.63085938 31.18554688 C-41.08311588 31.15971952 -43.69160941 31.10279686 -47 30 C-46.1875 28.0625 -46.1875 28.0625 -45 26 C-41.8956146 24.96520487 -40.09945882 25.01754989 -36.875 25.1875 C-31.76390528 25.26216407 -28.28005335 24.21999162 -23.77734375 21.875 C-22 21 -22 21 -20 21 C-20 20.34 -20 19.68 -20 19 C-20.66 19 -21.32 19 -22 19 C-21.4409112 15.75728494 -20.5867822 14.06942576 -18 12 C-17.34 12 -16.68 12 -16 12 C-15.67 11.01 -15.34 10.02 -15 9 C-14.34 9 -13.68 9 -13 9 C-12.34 7.68 -11.68 6.36 -11 5 C-9.68 5.33 -8.36 5.66 -7 6 C-7.33 7.65 -7.66 9.3 -8 11 C-7.34 11 -6.68 11 -6 11 C-4.5653411 8.5132579 -3.9511186 6.6883811 -3.5 3.8125 C-3.335 2.884375 -3.17 1.95625 -3 1 C-1 0 -1 0 0 0 Z " fill="#ACCC55" transform="translate(316,189)"/>
<path d="M0 0 C1.98 0 3.96 0 6 0 C7.32 2.97 8.64 5.94 10 9 C11.94268841 6.08596738 13.46395304 3.14191424 15 0 C16.98 0 18.96 0 21 0 C21 7.59 21 15.18 21 23 C19.02 23 17.04 23 15 23 C14.67 20.36 14.34 17.72 14 15 C13.01 17.475 13.01 17.475 12 20 C11.01 20 10.02 20 9 20 C8.34 18.35 7.68 16.7 7 15 C6.67 17.64 6.34 20.28 6 23 C4.02 23 2.04 23 0 23 C0 15.41 0 7.82 0 0 Z " fill="#4B4B4B" transform="translate(245,239)"/>
<path d="M0 0 C11 0 11 0 14.1875 1.125 C16 3 16 3 16.3125 5.9375 C16.209375 6.948125 16.10625 7.95875 16 9 C16 10.32 16 11.64 16 13 C16.33 13.33 16.66 13.66 17 14 C17.30133118 16.86264617 17.44642032 18.4047729 15.6875 20.75 C10.74788083 24.40897716 6.63887741 23 0 23 C0 15.41 0 7.82 0 0 Z " fill="#555555" transform="translate(450,239)"/>
<path d="M0 0 C11.8 0 11.8 0 15 3 C17.38588442 7.66331956 17.43823934 12.0426644 16 17 C14.17890734 19.76101146 12.95798903 21.52100548 10 23 C6.7 23 3.4 23 0 23 C0 15.41 0 7.82 0 0 Z " fill="#484848" transform="translate(158,239)"/>
<path d="M0 0 C12.34007429 -0.49360297 12.34007429 -0.49360297 15.40234375 1.796875 C17.67891591 4.93620678 17.3385117 7.20866901 17 11 C16.67516582 12.33542939 16.3449145 13.66961551 16 15 C16.33 15.66 16.66 16.32 17 17 C17.039992 18.99960012 17.04346799 21.00047242 17 23 C15.02 23 13.04 23 11 23 C10.67 20.69 10.34 18.38 10 16 C9.01 15.67 8.02 15.34 7 15 C7 17.64 7 20.28 7 23 C4.69 23 2.38 23 0 23 C0 15.41 0 7.82 0 0 Z " fill="#676767" transform="translate(219,239)"/>
<path d="M0 0 C4.38108539 0.69541038 5.33372333 1.17042788 7.9375 4.625 C8.43359375 7.68359375 8.43359375 7.68359375 8.375 11.0625 C8.37371094 12.17496094 8.37242188 13.28742188 8.37109375 14.43359375 C7.86047633 18.191922 6.64301744 20.91948256 3.9375 23.625 C-3.01085681 24.43564163 -3.01085681 24.43564163 -7.0625 21.3125 C-9.68425298 17.55822107 -9.77069909 13.72986664 -9.5390625 9.26171875 C-8.54572349 3.76578572 -5.85374963 0.36107241 0 0 Z " fill="#474747" transform="translate(60.0625,238.375)"/>
<path d="M0 0 C2.93901148 2.93901148 3.19198692 5.62904013 3.3125 9.625 C3.28826986 15.11716527 1.58403896 19.22414228 -1 24 C-1.66 24 -2.32 24 -3 24 C-3 24.66 -3 25.32 -3 26 C-3.66 26 -4.32 26 -5 26 C-5 29.3 -5 32.6 -5 36 C-6.66905241 32.66189518 -7.8741386 29.53842155 -9 26 C-12.93502306 27.85820533 -15.23483629 30.02015345 -17.28125 33.8984375 C-19.05856267 39.0951452 -18.47298023 44.79067968 -17 50 C-18.98 50.495 -18.98 50.495 -21 51 C-22.7265134 47.98896062 -23.31981037 45.71590887 -23.375 42.25 C-23.40335937 41.45078125 -23.43171875 40.6515625 -23.4609375 39.828125 C-22.23315788 32.29496869 -17.40487902 26.69072795 -12.5625 21.0625 C-7.1874191 14.80909748 -1.73953115 8.25609142 0 0 Z " fill="#ABCD51" transform="translate(281,158)"/>
<path d="M0 0 C11 0 11 0 15 2 C16.49498913 4.98997825 16.11577446 7.70042775 16 11 C15.67 11.99 15.34 12.98 15 14 C15.09406754 16.29453495 15.09406754 16.29453495 15.4375 18.6875 C15.53933594 19.49574219 15.64117187 20.30398438 15.74609375 21.13671875 C15.82988281 21.75160156 15.91367187 22.36648438 16 23 C14.02 23 12.04 23 10 23 C10 20.36 10 17.72 10 15 C8.68 15 7.36 15 6 15 C6 17.64 6 20.28 6 23 C4.02 23 2.04 23 0 23 C0 15.41 0 7.82 0 0 Z " fill="#424242" transform="translate(373,239)"/>
<path d="M0 0 C11 0 11 0 14.16796875 0.86328125 C17.27061445 4.48193199 16.51906358 8.60814428 16.3125 13.1875 C16.28994141 14.12787109 16.26738281 15.06824219 16.24414062 16.03710938 C16.18519227 18.35967473 16.10297785 20.67903776 16 23 C14.35 23 12.7 23 11 23 C10.5978125 21.2984375 10.5978125 21.2984375 10.1875 19.5625 C9.795625 18.386875 9.40375 17.21125 9 16 C8.01 15.67 7.02 15.34 6 15 C6 17.64 6 20.28 6 23 C4.02 23 2.04 23 0 23 C0 15.41 0 7.82 0 0 Z " fill="#404040" transform="translate(33,239)"/>
<path d="M0 0 C4.95 0 9.9 0 15 0 C15 1.98 15 3.96 15 6 C12.36 6 9.72 6 7 6 C7 6.99 7 7.98 7 9 C9.64 9 12.28 9 15 9 C15 10.98 15 12.96 15 15 C12.36 15 9.72 15 7 15 C7 15.66 7 16.32 7 17 C9.64 17 12.28 17 15 17 C15 18.98 15 20.96 15 23 C10.05 23 5.1 23 0 23 C0 15.41 0 7.82 0 0 Z " fill="#3F3F3F" transform="translate(356,239)"/>
<path d="M0 0 C1.98828125 0.78515625 1.98828125 0.78515625 3.2578125 2.6015625 C3.98828125 4.78515625 3.98828125 4.78515625 3.98828125 8.78515625 C2.00828125 8.78515625 0.02828125 8.78515625 -2.01171875 8.78515625 C-2.01171875 7.79515625 -2.01171875 6.80515625 -2.01171875 5.78515625 C-3.00171875 6.11515625 -3.99171875 6.44515625 -5.01171875 6.78515625 C-5.01171875 9.75515625 -5.01171875 12.72515625 -5.01171875 15.78515625 C-4.35171875 16.11515625 -3.69171875 16.44515625 -3.01171875 16.78515625 C-3.34171875 14.80515625 -3.67171875 12.82515625 -4.01171875 10.78515625 C-1.04171875 10.78515625 1.92828125 10.78515625 4.98828125 10.78515625 C4.98828125 14.74515625 4.98828125 18.70515625 4.98828125 22.78515625 C2.88439556 22.83917899 0.78011411 22.87795881 -1.32421875 22.91015625 C-2.49597656 22.93335938 -3.66773438 22.9565625 -4.875 22.98046875 C-8.01171875 22.78515625 -8.01171875 22.78515625 -11.01171875 20.78515625 C-12.8894689 15.82568674 -12.61227048 9.97109706 -12.01171875 4.78515625 C-8.85089327 -0.61883571 -5.73678507 -0.68455755 0 0 Z " fill="#4F4F4F" transform="translate(213.01171875,239.21484375)"/>
<path d="M0 0 C1.98 0 3.96 0 6 0 C6 2.97 6 5.94 6 9 C7.32 9 8.64 9 10 9 C10 6.03 10 3.06 10 0 C11.98 0 13.96 0 16 0 C16 7.59 16 15.18 16 23 C14.02 23 12.04 23 10 23 C10 20.36 10 17.72 10 15 C8.68 15 7.36 15 6 15 C6 17.64 6 20.28 6 23 C4.02 23 2.04 23 0 23 C0 15.41 0 7.82 0 0 Z " fill="#414141" transform="translate(414,239)"/>
<path d="M0 0 C2.64 0 5.28 0 8 0 C12.22323462 15.74487472 12.22323462 15.74487472 14 23 C12.02 23 10.04 23 8 23 C8 22.01 8 21.02 8 20 C5.36 20 2.72 20 0 20 C0 20.99 0 21.98 0 23 C-1.98 23 -3.96 23 -6 23 C-4.38911645 15.21406284 -2.23456312 7.62571782 0 0 Z " fill="#4A4A4A" transform="translate(186,239)"/>
<path d="M0 0 C4.62 0 9.24 0 14 0 C14 1.98 14 3.96 14 6 C11.36 6 8.72 6 6 6 C6 6.99 6 7.98 6 9 C8.64 9 11.28 9 14 9 C14 10.98 14 12.96 14 15 C11.36 15 8.72 15 6 15 C6 15.66 6 16.32 6 17 C8.64 17 11.28 17 14 17 C14 18.98 14 20.96 14 23 C9.38 23 4.76 23 0 23 C0 15.41 0 7.82 0 0 Z " fill="#4F4F4F" transform="translate(89,239)"/>
<path d="M0 0 C1.98 0 3.96 0 6 0 C6.33 5.61 6.66 11.22 7 17 C7.99 17 8.98 17 10 17 C10 11.39 10 5.78 10 0 C11.98 0 13.96 0 16 0 C16 6.27 16 12.54 16 19 C15.34 19 14.68 19 14 19 C13.34 20.32 12.68 21.64 12 23 C10.741875 23.04125 9.48375 23.0825 8.1875 23.125 C7.47980469 23.14820313 6.77210938 23.17140625 6.04296875 23.1953125 C4 23 4 23 1 21 C0.00986121 18.28536652 -0.11940483 15.76143721 -0.09765625 12.890625 C-0.09443359 12.13652344 -0.09121094 11.38242188 -0.08789062 10.60546875 C-0.07951172 9.82816406 -0.07113281 9.05085937 -0.0625 8.25 C-0.05798828 7.45722656 -0.05347656 6.66445312 -0.04882812 5.84765625 C-0.03708565 3.89840492 -0.01915146 1.94919262 0 0 Z " fill="#444444" transform="translate(432,239)"/>
<path d="M0 0 C2.38185385 2.09603139 2.29692208 4.32085388 2.5625 7.375 C0.9125 7.375 -0.7375 7.375 -2.4375 7.375 C-2.7675 6.715 -3.0975 6.055 -3.4375 5.375 C-5.46213255 4.72286708 -5.46213255 4.72286708 -7.4375 4.375 C-7.1075 5.365 -6.7775 6.355 -6.4375 7.375 C-4.3635297 8.35799748 -4.3635297 8.35799748 -1.9375 9.125 C0.51171875 10.140625 0.51171875 10.140625 2.5625 11.375 C3.875 14.875 3.875 14.875 3.5625 18.375 C2.1875 20.8125 2.1875 20.8125 -0.4375 22.375 C-3.50617871 22.86156527 -6.38640861 22.99870377 -9.4375 22.375 C-11.234375 21.015625 -11.234375 21.015625 -12.4375 19.375 C-12.125 16.6875 -12.125 16.6875 -11.4375 14.375 C-10.1175 14.375 -8.7975 14.375 -7.4375 14.375 C-7.1075 15.035 -6.7775 15.695 -6.4375 16.375 C-5.4475 16.375 -4.4575 16.375 -3.4375 16.375 C-3.1075 15.715 -2.7775 15.055 -2.4375 14.375 C-3.18 14.25125 -3.9225 14.1275 -4.6875 14 C-9.07417611 13.00302816 -10.90410641 12.17509038 -13.4375 8.375 C-13.75583733 5.31896162 -13.89971217 3.24164781 -12.4375 0.5 C-8.56716013 -1.67706618 -4.1502813 -1.06417469 0 0 Z " fill="#464646" transform="translate(83.4375,239.625)"/>
<path d="M0 0 C3 1.8125 3 1.8125 5 4 C5 4.99 5 5.98 5 7 C0.70700357 8.26264601 -1.87831311 7.62950412 -6 6 C-4.65284967 8.69430066 -3.24709508 8.91932594 -0.5 10.0625 C3.91280654 11.91280654 3.91280654 11.91280654 5 13 C5.57623479 19.22333572 5.57623479 19.22333572 3.5625 21.9375 C-0.27992476 23.53070051 -3.9059155 23.71336321 -8 23 C-10.0625 21.1875 -10.0625 21.1875 -11 19 C-11 18.01 -11 17.02 -11 16 C-9.35 15.67 -7.7 15.34 -6 15 C-5.67 15.66 -5.34 16.32 -5 17 C-3.68 17 -2.36 17 -1 17 C-0.67 16.34 -0.34 15.68 0 15 C-0.61488281 14.81824219 -1.22976563 14.63648438 -1.86328125 14.44921875 C-2.67152344 14.19785156 -3.47976563 13.94648438 -4.3125 13.6875 C-5.11300781 13.44386719 -5.91351563 13.20023438 -6.73828125 12.94921875 C-9.14961931 11.9372064 -10.39804914 11.05313323 -12 9 C-12.4375 6 -12.4375 6 -12 3 C-8.95698724 -0.80376595 -4.53136961 -0.82551684 0 0 Z " fill="#3E3E3E" transform="translate(402,239)"/>
<path d="M0 0 C4.62 0 9.24 0 14 0 C14 1.65 14 3.3 14 5 C11.36 5 8.72 5 6 5 C6 5.99 6 6.98 6 8 C8.64 8 11.28 8 14 8 C14 9.65 14 11.3 14 13 C11.36 13 8.72 13 6 13 C6 13.99 6 14.98 6 16 C8.64 16 11.28 16 14 16 C14 17.98 14 19.96 14 22 C9.38 22 4.76 22 0 22 C0 14.74 0 7.48 0 0 Z " fill="#464646" transform="translate(323,240)"/>
<path d="M0 0 C1.4540625 0.0309375 1.4540625 0.0309375 2.9375 0.0625 C7.35477234 11.89447948 7.35477234 11.89447948 4.875 17.4375 C1.99802441 19.85044727 -0.43909799 19.3359643 -4.0625 19.0625 C-4.0625 20.3825 -4.0625 21.7025 -4.0625 23.0625 C-6.0425 23.0625 -8.0225 23.0625 -10.0625 23.0625 C-5.3942124 0.11008597 -5.3942124 0.11008597 0 0 Z " fill="#3C3C3C" transform="translate(277.0625,238.9375)"/>
<path d="M0 0 C5.41390868 0.46671627 9.20517932 1.24297811 14 4 C14 4.99 14 5.98 14 7 C14.598125 7.185625 15.19625 7.37125 15.8125 7.5625 C19.09981799 9.72273753 19.64854687 12.35107655 21 16 C22.32 15.67 23.64 15.34 25 15 C25 19.62 25 24.24 25 29 C25.66 29 26.32 29 27 29 C26.625 31.4375 26.625 31.4375 26 34 C22.23221824 35.88389088 18.10306535 35.50499266 14 35 C6.78632438 32.52063297 -0.93825821 28.12348357 -4.4375 21.125 C-4.623125 20.42375 -4.80875 19.7225 -5 19 C-4.51789063 19.42152344 -4.03578125 19.84304687 -3.5390625 20.27734375 C-2.90742188 20.82519531 -2.27578125 21.37304688 -1.625 21.9375 C-0.68527344 22.75541016 -0.68527344 22.75541016 0.2734375 23.58984375 C1.95632334 25.06958624 1.95632334 25.06958624 4 26 C4 26.66 4 27.32 4 28 C4.825 28.268125 5.65 28.53625 6.5 28.8125 C9.09489406 29.69291048 11.65609196 30.60792724 14.21875 31.57421875 C14.92966797 31.84194092 15.64058594 32.10966309 16.37304688 32.38549805 C16.90994141 32.58828369 17.44683594 32.79106934 18 33 C18.08115993 29.93696422 18.14057409 26.87609185 18.1875 23.8125 C18.21263672 22.94818359 18.23777344 22.08386719 18.26367188 21.19335938 C18.320022 16.29089865 18.25375966 12.93992666 15 9 C10.53342979 4.69849869 6.037591 2.25783146 0 1 C0 0.67 0 0.34 0 0 Z " fill="#F9FDEA" transform="translate(232,180)"/>
<path d="M0 0 C0.66 0 1.32 0 2 0 C2.66 2.64 3.32 5.28 4 8 C4.66 8 5.32 8 6 8 C10 13.41176471 10 13.41176471 10 16 C10.99 16.33 11.98 16.66 13 17 C14.1875 19.5625 14.1875 19.5625 15 22 C14.236875 22.70125 13.47375 23.4025 12.6875 24.125 C10.03409522 26.96352604 8.55999257 29.46949051 7 33 C6.67 33 6.34 33 6 33 C6 30.03 6 27.06 6 24 C4.68 23.34 3.36 22.68 2 22 C-1.37851642 15.48428977 -1.58047196 9.25589952 -1 2 C-0.67 1.34 -0.34 0.68 0 0 Z " fill="#B1CF5E" transform="translate(249,160)"/>
<path d="M0 0 C5.28 0 10.56 0 16 0 C16 1.98 16 3.96 16 6 C14.35 6 12.7 6 11 6 C11 11.61 11 17.22 11 23 C9.02 23 7.04 23 5 23 C5 17.39 5 11.78 5 6 C3.35 6 1.7 6 0 6 C0 4.02 0 2.04 0 0 Z " fill="#3A3A3A" transform="translate(339,239)"/>
<path d="M0 0 C1.98 0 3.96 0 6 0 C6 5.61 6 11.22 6 17 C8.31 17 10.62 17 13 17 C13 18.98 13 20.96 13 23 C8.71 23 4.42 23 0 23 C0 15.41 0 7.82 0 0 Z " fill="#494949" transform="translate(105,239)"/>
<path d="M0 0 C3.18983563 2.77012041 3.9214435 4.43046539 4.5 8.625 C4 12 4 12 2.4375 13.9375 C-0.93389023 15.40708036 -3.36462125 15.46268457 -7 15 C-9.85576764 12.69696158 -9.98181881 11.14544949 -10.4375 7.5 C-10 4 -10 4 -8.375 1.5625 C-5.2629338 -0.48491197 -3.65605504 -0.68551032 0 0 Z " fill="#99AA6A" transform="translate(106,281)"/>
<path d="M0 0 C2.31974725 2.09525558 2.88843903 3.37844604 3.4375 6.4375 C2.82551218 10.02200012 1.70155367 11.57552876 -1 14 C-4.5625 14.5625 -4.5625 14.5625 -8 14 C-10.29926216 12.21992607 -10.85462377 10.90314981 -11.3125 8.05859375 C-11.50525251 4.78782466 -11.44529545 2.58778999 -9.4375 -0.0625 C-5.90893904 -1.41963883 -3.61224884 -0.98515877 0 0 Z " fill="#879A57" transform="translate(240,282)"/>
<path d="M0 0 C2.52017426 2.52017426 2.29730377 3.51499849 2.3125 7 C2.32925781 7.886875 2.34601563 8.77375 2.36328125 9.6875 C2.24339844 10.450625 2.12351563 11.21375 2 12 C-1.70415293 14.46943529 -3.62144505 14.46913089 -8 14 C-10.29926216 12.21992607 -10.85462377 10.90314981 -11.3125 8.05859375 C-11.50525251 4.78782466 -11.44529545 2.58778999 -9.4375 -0.0625 C-5.9788559 -1.39274773 -3.5559841 -0.85607025 0 0 Z " fill="#97A968" transform="translate(178,282)"/>
<path d="M0 0 C6.6328125 -0.1953125 6.6328125 -0.1953125 9.9375 1.5625 C12 4 12 4 12.5 7.5 C11.73366834 12.86432161 11.73366834 12.86432161 9 15 C6.20166432 15.39334036 3.85710843 15.23041197 1 15 C0 14 0 14 -0.09765625 10.83984375 C-0.08025391 8.90818359 -0.08025391 8.90818359 -0.0625 6.9375 C-0.05347656 5.64714844 -0.04445313 4.35679687 -0.03515625 3.02734375 C-0.02355469 2.02832031 -0.01195312 1.02929688 0 0 Z " fill="#96A768" transform="translate(383,281)"/>
<path d="M0 0 C6.625 0.75 6.625 0.75 10 3 C10.29078593 6.92561005 9.97997664 10.22009011 9 14 C9.33 14.66 9.66 15.32 10 16 C10.039992 17.99960012 10.04346799 20.00047242 10 22 C8.02 22 6.04 22 4 22 C3.938125 20.906875 3.87625 19.81375 3.8125 18.6875 C3.3867767 14.85667284 3.3867767 14.85667284 0.4375 13.0625 C-0.366875 12.711875 -1.17125 12.36125 -2 12 C0 9 0 9 3 8 C3.73323796 5.98491642 3.73323796 5.98491642 4 4 C2.35 4 0.7 4 -1 4 C-0.67 2.68 -0.34 1.36 0 0 Z " fill="#454545" transform="translate(226,240)"/>
<path d="M0 0 C1.98 0 3.96 0 6 0 C6 7.59 6 15.18 6 23 C4.02 23 2.04 23 0 23 C0 20.03 0 17.06 0 14 C-0.66 14 -1.32 14 -2 14 C-1.85866501 12.22880197 -1.71176792 10.45804713 -1.5625 8.6875 C-1.48128906 7.70136719 -1.40007812 6.71523437 -1.31640625 5.69921875 C-1 3 -1 3 0 0 Z " fill="#454545" transform="translate(260,239)"/>
<path d="M0 0 C1.32 0 2.64 0 4 0 C4.0825 0.94875 4.165 1.8975 4.25 2.875 C4.65074923 6.10461791 4.65074923 6.10461791 7.0625 7.375 C7.701875 7.58125 8.34125 7.7875 9 8 C8.979375 8.928125 8.95875 9.85625 8.9375 10.8125 C8.84230396 14.02286011 8.84230396 14.02286011 10 17 C9.01 17 8.02 17 7 17 C6.67 18.65 6.34 20.3 6 22 C4.02 22 2.04 22 0 22 C0 14.74 0 7.48 0 0 Z " fill="#414141" transform="translate(306,240)"/>
<path d="M0 0 C1.5 1.0625 1.5 1.0625 3 3 C3.26641894 6.72986522 3.1845131 9.44646071 2 13 C2.09406754 15.29453495 2.09406754 15.29453495 2.4375 17.6875 C2.53933594 18.49574219 2.64117187 19.30398438 2.74609375 20.13671875 C2.82988281 20.75160156 2.91367187 21.36648438 3 22 C1.02 22 -0.96 22 -3 22 C-3 19.36 -3 16.72 -3 14 C-4.32 14 -5.64 14 -7 14 C-7 13.01 -7 12.02 -7 11 C-6.34 11 -5.68 11 -5 11 C-5 10.34 -5 9.68 -5 9 C-5.99 9 -6.98 9 -8 9 C-8 7.68 -8 6.36 -8 5 C-5.36 4.67 -2.72 4.34 0 4 C0 2.68 0 1.36 0 0 Z " fill="#4A4A4A" transform="translate(386,240)"/>
<path d="M0 0 C2 2 2 2 2.1875 4.8125 C2 8 2 8 1.4375 10.75 C0.75802104 13.02413438 0.75802104 13.02413438 2 15 C2.039992 16.99960012 2.04346799 19.00047242 2 21 C0.02 21 -1.96 21 -4 21 C-4.103125 19.88625 -4.20625 18.7725 -4.3125 17.625 C-4.539375 16.42875 -4.76625 15.2325 -5 14 C-5.99 13.34 -6.98 12.68 -8 12 C-7.01 11.01 -6.02 10.02 -5 9 C-6.32 8.67 -7.64 8.34 -9 8 C-9.33 5.69 -9.66 3.38 -10 1 C-9.01 1 -8.02 1 -7 1 C-7 1.66 -7 2.32 -7 3 C-5.68 3.33 -4.36 3.66 -3 4 C-3 3.01 -3 2.02 -3 1 C-2.34 1.33 -1.68 1.66 -1 2 C-0.67 1.34 -0.34 0.68 0 0 Z " fill="#535353" transform="translate(302,241)"/>
<path d="M0 0 C1.98 0 3.96 0 6 0 C6 7.59 6 15.18 6 23 C4.02 23 2.04 23 0 23 C0 15.41 0 7.82 0 0 Z " fill="#474747" transform="translate(237,239)"/>
<path d="M0 0 C2.69082872 0.17635452 5.32851446 0.61835921 8 1 C8.22142255 2.95689659 8.4267568 4.91561952 8.625 6.875 C8.74101562 7.96554687 8.85703125 9.05609375 8.9765625 10.1796875 C8.98429687 11.11039062 8.99203125 12.04109375 9 13 C7 15 7 15 3.4375 15.1875 C0 15 0 15 -1 14 C-1.0989294 11.83519203 -1.129711 9.66706215 -1.125 7.5 C-1.12757813 6.3140625 -1.13015625 5.128125 -1.1328125 3.90625 C-1 1 -1 1 0 0 Z " fill="#A6B678" transform="translate(313,281)"/>
<path d="M0 0 C3.125 0.375 3.125 0.375 5.5625 2.125 C7.125 4.375 7.125 4.375 6.875 6.625 C6.6275 7.2025 6.38 7.78 6.125 8.375 C5.795 7.385 5.465 6.395 5.125 5.375 C3.22181116 8.22978326 2.6630901 9.79441308 2 13.0625 C1.83242188 13.87074219 1.66484375 14.67898437 1.4921875 15.51171875 C1.37101562 16.12660156 1.24984375 16.74148437 1.125 17.375 C-0.525 17.045 -2.175 16.715 -3.875 16.375 C-3.875 13.735 -3.875 11.095 -3.875 8.375 C-4.535 8.045 -5.195 7.715 -5.875 7.375 C-4.80957944 0.62733645 -4.80957944 0.62733645 0 0 Z " fill="#404040" transform="translate(60.875,238.625)"/>
<path d="M0 0 C1.32 0.33 2.64 0.66 4 1 C4 4.33333333 4 7.66666667 4 11 C4.33 11.33 4.66 11.66 5 12 C5.30133118 14.86264617 5.44642032 16.4047729 3.6875 18.75 C0.50099469 21.1103743 -2.36999074 21.11207804 -6.1875 21.0625 C-7.53908203 21.04896484 -7.53908203 21.04896484 -8.91796875 21.03515625 C-9.60503906 21.02355469 -10.29210937 21.01195312 -11 21 C-11 20.34 -11 19.68 -11 19 C-7.5647952 16.70986347 -6.014669 16.82157027 -2 17 C-1.67 15.02 -1.34 13.04 -1 11 C-1.99 10.67 -2.98 10.34 -4 10 C-0.25 5.125 -0.25 5.125 2 4 C2 3.34 2 2.68 2 2 C1.34 2 0.68 2 0 2 C0 1.34 0 0.68 0 0 Z " fill="#414141" transform="translate(462,241)"/>
<path d="M0 0 C0.33 0 0.66 0 1 0 C1.33 3.3 1.66 6.6 2 10 C3.32 9.67 4.64 9.34 6 9 C6 7.68 6 6.36 6 5 C7.65 5 9.3 5 11 5 C11.66 6.98 12.32 8.96 13 11 C10.36 11 7.72 11 5 11 C5 11.99 5 12.98 5 14 C6.32 14.33 7.64 14.66 9 15 C8.01 15 7.02 15 6 15 C6 17.64 6 20.28 6 23 C4.02 23 2.04 23 0 23 C0 15.41 0 7.82 0 0 Z " fill="#646464" transform="translate(33,239)"/>
<path d="M0 0 C1.98828125 0.78515625 1.98828125 0.78515625 3.2578125 2.6015625 C3.98828125 4.78515625 3.98828125 4.78515625 3.98828125 8.78515625 C2.00828125 8.78515625 0.02828125 8.78515625 -2.01171875 8.78515625 C-2.01171875 7.79515625 -2.01171875 6.80515625 -2.01171875 5.78515625 C-7.16340267 8.18063698 -7.16340267 8.18063698 -10.44921875 12.53515625 C-10.63484375 13.27765625 -10.82046875 14.02015625 -11.01171875 14.78515625 C-11.34171875 14.78515625 -11.67171875 14.78515625 -12.01171875 14.78515625 C-12.4532259 9.73235219 -12.76558919 6.02539472 -10.07421875 1.59765625 C-6.31742034 -0.62575505 -4.22580095 -0.50425524 0 0 Z " fill="#494949" transform="translate(213.01171875,239.21484375)"/>
<path d="M0 0 C0.66 0 1.32 0 2 0 C2 0.66 2 1.32 2 2 C2.5465625 2.20882812 3.093125 2.41765625 3.65625 2.6328125 C6.86823619 4.50647111 9.05327574 7.12741204 11.5 9.875 C16.56674527 15.45475143 21.80161441 20.8425146 27.1484375 26.15234375 C27.77965515 26.77953308 28.4108728 27.40672241 29.06121826 28.05291748 C31.64645021 30.61851786 34.23385849 33.18178535 36.83032227 35.73602295 C38.6799786 37.5556585 40.52386851 39.38097977 42.3671875 41.20703125 C42.93529144 41.76164536 43.50339539 42.31625946 44.0887146 42.88768005 C45.43075065 44.2210043 46.72106066 45.60603856 48 47 C48 47.66 48 48.32 48 49 C42.20734408 46.64002907 38.51967887 41.53506773 34.625 36.84375 C31.02924594 32.76395213 27.03142003 29.03816016 23.16447449 25.21577454 C20.65932904 22.73742071 18.1595185 20.2537142 15.65991211 17.76977539 C14.33777366 16.45778332 13.01385909 15.14757883 11.68823242 13.83911133 C9.77055574 11.94556231 7.85929592 10.04574188 5.94921875 8.14453125 C5.3524382 7.55807327 4.75565765 6.9716153 4.14079285 6.36738586 C2.72206345 4.94905011 1.35541417 3.47895971 0 2 C0 1.34 0 0.68 0 0 Z " fill="#444444" transform="translate(182,101)"/>
<path d="M0 0 C0.99 0 1.98 0 3 0 C3 4.95 3 9.9 3 15 C2.34 15 1.68 15 1 15 C0.67 12.36 0.34 9.72 0 7 C-0.99 9.64 -1.98 12.28 -3 15 C-3.66 15 -4.32 15 -5 15 C-6.9451 12.08235 -7.45276317 10.37462715 -8 7 C-8.33 9.64 -8.66 12.28 -9 15 C-9.66 15 -10.32 15 -11 15 C-11 10.38 -11 5.76 -11 1 C-9.68 1.33 -8.36 1.66 -7 2 C-5.47835901 4.89111788 -5 6.71823412 -5 10 C-4.34 10 -3.68 10 -3 10 C-2.87625 9.0925 -2.7525 8.185 -2.625 7.25 C-2.07890323 4.41029677 -1.42736197 2.47409409 0 0 Z " fill="#839847" transform="translate(129,281)"/>
<path d="M0 0 C3.5625 0.3125 3.5625 0.3125 5.5 1.5 C6.94968434 3.97299093 6.98567323 5.49134512 6.5625 8.3125 C5.5 10.125 5.5 10.125 3.5625 11.3125 C0 11.6875 0 11.6875 -3.4375 11.3125 C-5.73913882 7.86004176 -5.78240322 6.36511287 -5.4375 2.3125 C-3.4375 0.3125 -3.4375 0.3125 0 0 Z " fill="#B2CC67" transform="translate(265.4375,159.6875)"/>
<path d="M0 0 C0.66 0.33 1.32 0.66 2 1 C-0.49565251 3.52516805 -2.99732451 6.04429373 -5.5 8.5625 C-6.19609375 9.26697266 -6.8921875 9.97144531 -7.609375 10.69726562 C-10.90886978 14.01203584 -14.22424119 17.24297165 -17.78125 20.28125 C-23.48176754 25.19057502 -28.70584782 30.59971017 -34 35.9375 C-35.07137887 37.01390654 -36.14299182 38.09008014 -37.21484375 39.16601562 C-39.81259638 41.77466745 -42.40717962 44.38644471 -45 47 C-45.66 46.67 -46.32 46.34 -47 46 C-45.88200014 44.66079162 -44.75538103 43.32877444 -43.625 42 C-42.68527344 40.88625 -42.68527344 40.88625 -41.7265625 39.75 C-40.87191406 38.88375 -40.87191406 38.88375 -40 38 C-39.34 38 -38.68 38 -38 38 C-37.79375 37.443125 -37.5875 36.88625 -37.375 36.3125 C-35.82702134 33.70908135 -33.92265493 32.20603811 -31.56640625 30.34375 C-29.57589979 28.63618336 -28.03016163 26.63048737 -26.39453125 24.58984375 C-24.22501579 22.11647458 -21.73949398 20.052459 -19.2421875 17.91796875 C-12.57022479 12.2107672 -6.11696649 6.29926019 0 0 Z " fill="#363636" transform="translate(350,103)"/>
<path d="M0 0 C3.125 -0.1875 3.125 -0.1875 6 0 C7.50847223 3.51976854 8.13989483 5.40544699 7.25 9.1875 C6 12 6 12 4 15 C3.01 15 2.02 15 1 15 C1 12.69 1 10.38 1 8 C-0.98 8.99 -0.98 8.99 -3 10 C-2.25 3.375 -2.25 3.375 0 0 Z " fill="#464646" transform="translate(274,239)"/>
<path d="M0 0 C1.8125 0.0625 1.8125 0.0625 4 1 C6.19302649 5.07276348 7.4217962 8.36024175 7 13 C6.5978125 12.0409375 6.5978125 12.0409375 6.1875 11.0625 C5.11332248 8.66868314 5.11332248 8.66868314 2 8 C2.061875 8.94875 2.12375 9.8975 2.1875 10.875 C2.125625 11.90625 2.06375 12.9375 2 14 C-1 16 -1 16 -4 16 C-4 12.37 -4 8.74 -4 5 C-3.01 4.67 -2.02 4.34 -1 4 C-0.26676204 1.98491642 -0.26676204 1.98491642 0 0 Z " fill="#545454" transform="translate(168,240)"/>
<path d="M0 0 C0.99 0 1.98 0 3 0 C3 4.95 3 9.9 3 15 C2.01 15 1.02 15 0 15 C-1.65 12.03 -3.3 9.06 -5 6 C-5.33 8.97 -5.66 11.94 -6 15 C-6.66 15 -7.32 15 -8 15 C-8 10.38 -8 5.76 -8 1 C-7.01 1 -6.02 1 -5 1 C-2.8125 4 -2.8125 4 -1 7 C-0.67 4.69 -0.34 2.38 0 0 Z " fill="#9CAD6F" transform="translate(373,281)"/>
<path d="M0 0 C4.95 0 9.9 0 15 0 C15 1.98 15 3.96 15 6 C12.36 6 9.72 6 7 6 C7 5.34 7 4.68 7 4 C5.05396726 3.40929986 5.05396726 3.40929986 3 3 C1.45049732 4.54950268 1.78344807 6.09990594 1.68359375 8.25390625 C1.64169922 9.10791016 1.59980469 9.96191406 1.55664062 10.84179688 C1.51732422 11.73962891 1.47800781 12.63746094 1.4375 13.5625 C1.39431641 14.46419922 1.35113281 15.36589844 1.30664062 16.29492188 C1.20021858 18.52978485 1.09820012 20.76476308 1 23 C0.67 23 0.34 23 0 23 C0 15.41 0 7.82 0 0 Z " fill="#656565" transform="translate(356,239)"/>
<path d="M0 0 C0.66 0 1.32 0 2 0 C2 7.26 2 14.52 2 22 C1.34 22 0.68 22 0 22 C-4.929028 10.30149148 -4.929028 10.30149148 -3 4 C-1.5625 1.5625 -1.5625 1.5625 0 0 Z " fill="#EAEAEA" transform="translate(321,240)"/>
<path d="M0 0 C0.66 0 1.32 0 2 0 C2.33 1.98 2.66 3.96 3 6 C1.35 6.33 -0.3 6.66 -2 7 C-1.67 7.99 -1.34 8.98 -1 10 C0.65 10 2.3 10 4 10 C4 10.33 4 10.66 4 11 C1.69 11 -0.62 11 -3 11 C-3 11.99 -3 12.98 -3 14 C-4.98 14 -6.96 14 -9 14 C-8.71640113 12.5608866 -8.42278601 11.12374482 -8.125 9.6875 C-7.96257812 8.88699219 -7.80015625 8.08648437 -7.6328125 7.26171875 C-7 5 -7 5 -5 2 C-5 2.66 -5 3.32 -5 4 C-3.01508358 3.73323796 -3.01508358 3.73323796 -1 3 C-0.67 2.01 -0.34 1.02 0 0 Z " fill="#737373" transform="translate(189,248)"/>
<path d="M0 0 C1.32 0 2.64 0 4 0 C5.32 4.62 6.64 9.24 8 14 C7.01 14 6.02 14 5 14 C5 12.68 5 11.36 5 10 C3.02 10 1.04 10 -1 10 C-1.33 11.32 -1.66 12.64 -2 14 C-2.66 14 -3.32 14 -4 14 C-3.36843005 8.94744036 -1.86540627 4.70406799 0 0 Z " fill="#92A464" transform="translate(350,282)"/>
<path d="M0 0 C1.38125018 2.76250036 1.19079306 4.94731099 1 8 C-1 10 -1 10 -3.5 10.3125 C-4.7375 10.1578125 -4.7375 10.1578125 -6 10 C-8 7 -8 7 -7.75 3.375 C-7.5025 2.26125 -7.255 1.1475 -7 0 C-4.30234372 -1.34882814 -2.84835666 -0.80338265 0 0 Z " fill="#EFF7D3" transform="translate(239,284)"/>
<path d="M0 0 C3.28611408 1.55658035 4.75101034 2.46645073 6.3125 5.8125 C6.9969388 8.98580718 7.15404779 11.76499638 7 15 C5.35 15 3.7 15 2 15 C2 13.68 2 12.36 2 11 C0.02 11 -1.96 11 -4 11 C-4 10.34 -4 9.68 -4 9 C-3.01 9 -2.02 9 -1 9 C-0.67 6.03 -0.34 3.06 0 0 Z " fill="#3D3D3D" transform="translate(131,247)"/>
<path d="M0 0 C3 1.8125 3 1.8125 5 4 C5 4.99 5 5.98 5 7 C0.70700357 8.26264601 -1.87831311 7.62950412 -6 6 C-5.34 5.67 -4.68 5.34 -4 5 C-7.01031744 4.06576355 -7.86650268 3.95550089 -11 5 C-11.73323796 7.01508358 -11.73323796 7.01508358 -12 9 C-12.48 3.6 -12.48 3.6 -10.5 1.125 C-6.98425637 -0.45708463 -3.74764291 -0.68273891 0 0 Z " fill="#515151" transform="translate(402,239)"/>
<path d="M0 0 C0.99 0 1.98 0 3 0 C6.19375864 7.58517676 7.08840466 13.08596305 4 21 C3.34 19.68 2.68 18.36 2 17 C1.01 17.66 0.02 18.32 -1 19 C-0.505 17.515 -0.505 17.515 0 16 C0.07051114 13.26134713 0.09357765 10.54972412 0.0625 7.8125 C0.05573242 6.68811523 0.05573242 6.68811523 0.04882812 5.54101562 C0.03706354 3.69397617 0.01912865 1.84697787 0 0 Z " fill="#B5D06B" transform="translate(268,189)"/>
<path d="M0 0 C0.99 0 1.98 0 3 0 C3.83764268 1.95649397 4.66999059 3.91525556 5.5 5.875 C5.9640625 6.96554687 6.428125 8.05609375 6.90625 9.1796875 C8 12 8 12 8 14 C7.01 14 6.02 14 5 14 C4.67 12.68 4.34 11.36 4 10 C2.35 10 0.7 10 -1 10 C-1.33 11.32 -1.66 12.64 -2 14 C-2.66 14 -3.32 14 -4 14 C-3.36843005 8.94744036 -1.86540627 4.70406799 0 0 Z " fill="#92A461" transform="translate(272,282)"/>
<path d="M0 0 C6.72 0.72 6.72 0.72 8 2 C8.04063832 3.66617115 8.042721 5.33388095 8 7 C7.01 7.33 6.02 7.66 5 8 C6.3089572 11.12197478 6.3089572 11.12197478 9 13 C9 13.66 9 14.32 9 15 C7.68 15 6.36 15 5 15 C2.82542733 12.12645755 2 10.63563409 2 7 C2.99 7 3.98 7 5 7 C5 5.35 5 3.7 5 2 C3.68 2 2.36 2 1 2 C1 6.29 1 10.58 1 15 C0.34 15 -0.32 15 -1 15 C-1.02685412 12.68756208 -1.04632841 10.3750373 -1.0625 8.0625 C-1.07410156 6.77472656 -1.08570313 5.48695313 -1.09765625 4.16015625 C-1 1 -1 1 0 0 Z " fill="#8CA059" transform="translate(331,281)"/>
<path d="M0 0 C1.25 6.625 1.25 6.625 -1 10 C-3.5 10.375 -3.5 10.375 -6 10 C-8 7 -8 7 -7.75 3.375 C-7.5025 2.26125 -7.255 1.1475 -7 0 C-4.3333581 -1.33332095 -2.83319697 -0.67102033 0 0 Z " fill="#F9FDEF" transform="translate(177,284)"/>
<path d="M0 0 C4.55555556 0.55555556 4.55555556 0.55555556 6 2 C6.1328125 3.8125 6.1328125 3.8125 6.125 6 C6.12757812 6.721875 6.13015625 7.44375 6.1328125 8.1875 C6 10 6 10 5 11 C2.5625 11.1875 2.5625 11.1875 0 11 C-2 9 -2 9 -2.25 5.5 C-2 2 -2 2 0 0 Z " fill="#F7FCEA" transform="translate(101,283)"/>
<path d="M0 0 C0.33 0 0.66 0 1 0 C1 7.59 1 15.18 1 23 C-1.64 23 -4.28 23 -7 23 C-7 22.01 -7 21.02 -7 20 C-9.31 20 -11.62 20 -14 20 C-14 19.67 -14 19.34 -14 19 C-12.906875 18.979375 -11.81375 18.95875 -10.6875 18.9375 C-7.04267663 18.43885957 -7.04267663 18.43885957 -5.8671875 16.375 C-4.93575266 14.21776965 -4.93575266 14.21776965 -4 11 C-2 14 -2 14 -1 19 C-0.67 12.73 -0.34 6.46 0 0 Z " fill="#858585" transform="translate(287,239)"/>
<path d="M0 0 C2.97 0 5.94 0 9 0 C9 0.66 9 1.32 9 2 C7.02 2 5.04 2 3 2 C3 3.32 3 4.64 3 6 C4.32 6 5.64 6 7 6 C7 6.66 7 7.32 7 8 C5.68 8 4.36 8 3 8 C3 9.65 3 11.3 3 13 C4.98 13 6.96 13 9 13 C9 13.66 9 14.32 9 15 C6.03 15 3.06 15 0 15 C0 10.05 0 5.1 0 0 Z " fill="#9BAB6F" transform="translate(140,281)"/>
<path d="M0 0 C5.28 0 10.56 0 16 0 C16 1.98 16 3.96 16 6 C14.35 6 12.7 6 11 6 C12.32 5.67 13.64 5.34 15 5 C15 3.68 15 2.36 15 1 C13.35 1 11.7 1 10 1 C10 2.32 10 3.64 10 5 C6.21812119 6.83691257 4.05431692 7.15837626 0 6 C0 4.02 0 2.04 0 0 Z " fill="#474747" transform="translate(339,239)"/>
<path d="M0 0 C1.32 0.33 2.64 0.66 4 1 C3.67 2.32 3.34 3.64 3 5 C2.071875 5.12375 2.071875 5.12375 1.125 5.25 C-1.14390805 5.78597843 -1.14390805 5.78597843 -2 7.8125 C-2.33 8.534375 -2.66 9.25625 -3 10 C-4.875 12.25 -4.875 12.25 -7 14 C-8.32 14 -9.64 14 -11 14 C-10.4409112 10.75728494 -9.5867822 9.06942576 -7 7 C-6.34 7 -5.68 7 -5 7 C-4.67 6.01 -4.34 5.02 -4 4 C-3.34 4 -2.68 4 -2 4 C-1.34 2.68 -0.68 1.36 0 0 Z " fill="#BADA68" transform="translate(305,194)"/>
<path d="M0 0 C2.97 0 5.94 0 9 0 C9 3.96 9 7.92 9 12 C6.03 11.505 6.03 11.505 3 11 C3.33 10.34 3.66 9.68 4 9 C4.66 9 5.32 9 6 9 C6 7.68 6 6.36 6 5 C4.35 5.33 2.7 5.66 1 6 C0.67 4.02 0.34 2.04 0 0 Z " fill="#444444" transform="translate(209,250)"/>
<path d="M0 0 C0.66 0 1.32 0 2 0 C2 4.95 2 9.9 2 15 C1.34 15 0.68 15 0 15 C0 12.69 0 10.38 0 8 C-1.98 8 -3.96 8 -6 8 C-6 10.31 -6 12.62 -6 15 C-6.66 15 -7.32 15 -8 15 C-8 10.38 -8 5.76 -8 1 C-7.34 1 -6.68 1 -6 1 C-6 2.65 -6 4.3 -6 6 C-4.02 6 -2.04 6 0 6 C0 4.02 0 2.04 0 0 Z " fill="#899C53" transform="translate(86,281)"/>
<path d="M0 0 C0.78375 0.04125 1.5675 0.0825 2.375 0.125 C2.705 1.115 3.035 2.105 3.375 3.125 C1.725 3.125 0.075 3.125 -1.625 3.125 C-1.955 4.115 -2.285 5.105 -2.625 6.125 C-1.655625 6.269375 -0.68625 6.41375 0.3125 6.5625 C3.375 7.125 3.375 7.125 4.375 8.125 C4.5 11.125 4.5 11.125 4.375 14.125 C3.375 15.125 3.375 15.125 1.52734375 15.22265625 C-0.5234375 15.19010417 -2.57421875 15.15755208 -4.625 15.125 C-4.955 14.135 -5.285 13.145 -5.625 12.125 C-2.985 12.455 -0.345 12.785 2.375 13.125 C2.375 11.805 2.375 10.485 2.375 9.125 C1.405625 8.980625 0.43625 8.83625 -0.5625 8.6875 C-3.625 8.125 -3.625 8.125 -4.625 7.125 C-4.8125 4.6875 -4.8125 4.6875 -4.625 2.125 C-2.625 0.125 -2.625 0.125 0 0 Z " fill="#8B9D55" transform="translate(407.625,280.875)"/>
<path d="M0 0 C1.051875 0.61875 2.10375 1.2375 3.1875 1.875 C10.71649306 6.15352417 17.85133773 7.09238843 26.375 7.5625 C27.11105469 7.60568359 27.84710938 7.64886719 28.60546875 7.69335938 C30.40348068 7.79843799 32.20171958 7.89962093 34 8 C34 8.66 34 9.32 34 10 C22.13317684 10.46997319 12.06837476 10.71224984 1.8125 3.875 C0 2 0 2 0 0 Z " fill="#EEF8D3" transform="translate(226,212)"/>
<path d="M0 0 C0.66 0 1.32 0 2 0 C2 0.66 2 1.32 2 2 C2.66 2 3.32 2 4 2 C4.96346103 20.64832345 4.96346103 20.64832345 -1 28 C-1.33 28.33 -1.66 28.66 -2 29 C-2.23075082 30.34747084 -2.41153063 31.70377565 -2.5625 33.0625 C-2.706875 34.361875 -2.85125 35.66125 -3 37 C-3.66 37 -4.32 37 -5 37 C-5 33.7 -5 30.4 -5 27 C-4.34 27 -3.68 27 -3 27 C-3 26.34 -3 25.68 -3 25 C-2.34 25 -1.68 25 -1 25 C2.41944009 16.57352265 3.6250059 8.60938902 0 0 Z " fill="#F2F9D7" transform="translate(281,157)"/>
<path d="M0 0 C0 0.66 0 1.32 0 2 C-0.66 2 -1.32 2 -2 2 C-1.67 2.99 -1.34 3.98 -1 5 C2.00847418 6.22520264 2.00847418 6.22520264 5 7 C4.67 8.32 4.34 9.64 4 11 C-3.36603774 10.39622642 -3.36603774 10.39622642 -6 8.75 C-7.38535376 6.32563093 -7.42182407 4.74185646 -7 2 C-4 0 -4 0 0 0 Z " fill="#3E3E3E" transform="translate(398,242)"/>
<path d="M0 0 C0.33 0 0.66 0 1 0 C1 7.59 1 15.18 1 23 C0.67 23 0.34 23 0 23 C0 20.03 0 17.06 0 14 C-0.66 14 -1.32 14 -2 14 C-2 13.34 -2 12.68 -2 12 C-2.63808594 11.82984375 -3.27617188 11.6596875 -3.93359375 11.484375 C-4.75988281 11.24203125 -5.58617188 10.9996875 -6.4375 10.75 C-7.67306641 10.40195313 -7.67306641 10.40195313 -8.93359375 10.046875 C-11 9 -11 9 -11.78515625 6.890625 C-11.85605469 6.26671875 -11.92695312 5.6428125 -12 5 C-9.525 5.495 -9.525 5.495 -7 6 C-7 6.66 -7 7.32 -7 8 C-5.33388095 8.042721 -3.66617115 8.04063832 -2 8 C-0.03177114 6.03177114 -0.33751619 2.65191291 0 0 Z " fill="#CECECE" transform="translate(88,239)"/>
<path d="M0 0 C0.33 0 0.66 0 1 0 C1.144375 1.258125 1.28875 2.51625 1.4375 3.8125 C1.86642701 6.04829697 1.86642701 6.04829697 3 8 C5.87394404 9.61298139 8.77982829 10.3639167 12 11 C11.67 11.99 11.34 12.98 11 14 C9.68 13.67 8.36 13.34 7 13 C7 12.34 7 11.68 7 11 C5.05925139 11.27617533 5.05925139 11.27617533 3 12 C2.01 13.485 2.01 13.485 1 15 C0.01 15 -0.98 15 -2 15 C-1.85930804 12.87465341 -1.71229079 10.74972471 -1.5625 8.625 C-1.48128906 7.44164062 -1.40007812 6.25828125 -1.31640625 5.0390625 C-1 2 -1 2 0 0 Z " fill="#DFDFDF" transform="translate(69,243)"/>
<path d="M0 0 C5 0 5 0 6.5625 1.3125 C9.57923973 4.85389011 9.08352771 8.57303125 9 13 C7.26337666 9.77484237 6.1094072 6.48670834 5 3 C1.8760344 4.60419855 0.22784362 5.60810897 -1.5625 8.6875 C-2.036875 9.450625 -2.51125 10.21375 -3 11 C-4.32 11 -5.64 11 -7 11 C-5.50897439 6.39137539 -3.30545582 3.46669756 0 0 Z " fill="#B5CE6B" transform="translate(267,181)"/>
<path d="M0 0 C0.66 0.33 1.32 0.66 2 1 C2.93742541 3.81227622 3.13470844 5.58746844 3.125 8.5 C3.12757812 9.2734375 3.13015625 10.046875 3.1328125 10.84375 C3 13 3 13 2 16 C1.34 16 0.68 16 0 16 C0 15.34 0 14.68 0 14 C-0.99 14 -1.98 14 -3 14 C-2.88512252 12.41590006 -2.75765492 10.83271037 -2.625 9.25 C-2.55539063 8.36828125 -2.48578125 7.4865625 -2.4140625 6.578125 C-2.00149945 4.00933618 -1.28839043 2.24158985 0 0 Z " fill="#3D3D3D" transform="translate(65,243)"/>
<path d="M0 0 C0.84304688 0.42925781 0.84304688 0.42925781 1.703125 0.8671875 C4.02870923 2.01415931 6.37770201 3.07839794 8.75 4.125 C9.54921875 4.47820312 10.3484375 4.83140625 11.171875 5.1953125 C11.77515625 5.46085938 12.3784375 5.72640625 13 6 C12.67 6.99 12.34 7.98 12 9 C10.35 8.67 8.7 8.34 7 8 C7 7.34 7 6.68 7 6 C4.52733235 6.34444881 4.52733235 6.34444881 2 7 C1.67 7.66 1.34 8.32 1 9 C0.34 8.67 -0.32 8.34 -1 8 C-1.75 5.625 -1.75 5.625 -2 3 C-1.34 2.01 -0.68 1.02 0 0 Z " fill="#E7E7E7" transform="translate(389,248)"/>
<path d="M0 0 C3.07758118 3.07758118 3.15649478 5.83289874 3.1875 10 C3.20167969 10.86625 3.21585937 11.7325 3.23046875 12.625 C3 15 3 15 1 18 C1 14.7 1 11.4 1 8 C-1.11178493 9.94309977 -1.11178493 9.94309977 -2.5 12.5625 C-4 15 -4 15 -6 16 C-6.33 16.99 -6.66 17.98 -7 19 C-9.5625 20.6875 -9.5625 20.6875 -12 22 C-10.51752808 18.78428978 -8.66683609 16.09198509 -6.5625 13.25 C-3.49446104 8.94196196 -1.58366029 5.03045035 0 0 Z " fill="#B7CF73" transform="translate(281,158)"/>
<path d="M0 0 C0 1.98 0 3.96 0 6 C-4.29 6 -8.58 6 -13 6 C-12.67 4.68 -12.34 3.36 -12 2 C-11.34 2 -10.68 2 -10 2 C-6.3558226 -0.4294516 -4.28758728 -0.16179575 0 0 Z " fill="#3D3D3D" transform="translate(118,256)"/>
<path d="M0 0 C0 0.99 0 1.98 0 3 C-2.31 2.67 -4.62 2.34 -7 2 C-8.36623674 4.73247348 -8.128426 6.98198902 -8 10 C-6.81575674 11.41577477 -6.81575674 11.41577477 -3.4375 11.0625 C-1.7359375 11.0315625 -1.7359375 11.0315625 0 11 C-0.33 11.99 -0.66 12.98 -1 14 C-7.40096618 14.48309179 -7.40096618 14.48309179 -9.9375 12.4375 C-11.41282332 9.05293473 -11.45674603 6.65396822 -11 3 C-7.9816718 -1.82932511 -5.20382316 -1.20088227 0 0 Z " fill="#8D9E5E" transform="translate(261,282)"/>
<path d="M0 0 C3.63 0.33 7.26 0.66 11 1 C11 2.65 11 4.3 11 6 C6.71 6 2.42 6 -2 6 C-1 2 -1 2 0 0 Z " fill="#3C3C3C" transform="translate(326,256)"/>
<path d="M0 0 C5 1 5 1 6 2 C6.1328125 3.8125 6.1328125 3.8125 6.125 6 C6.12757813 6.721875 6.13015625 7.44375 6.1328125 8.1875 C6 10 6 10 5 11 C3.35 11 1.7 11 0 11 C0 7.37 0 3.74 0 0 Z " fill="#F5FBDA" transform="translate(386,283)"/>
<path d="M0 0 C0.33 0 0.66 0 1 0 C1 7.59 1 15.18 1 23 C0.67 23 0.34 23 0 23 C-0.33 18.38 -0.66 13.76 -1 9 C-3.64 9 -6.28 9 -9 9 C-9 8.01 -9 7.02 -9 6 C-6.36 6 -3.72 6 -1 6 C-0.67 4.02 -0.34 2.04 0 0 Z " fill="#D5D5D5" transform="translate(104,239)"/>
<path d="M0 0 C1.98 0 3.96 0 6 0 C5.01 0.495 5.01 0.495 4 1 C4 3.64 4 6.28 4 9 C3.34 9 2.68 9 2 9 C1.80705592 13.82360189 2.24252386 17.49646738 4 22 C3.01 21.67 2.02 21.34 1 21 C-0.01802737 18.30228218 -0.11933332 15.7519983 -0.09765625 12.890625 C-0.09443359 12.13652344 -0.09121094 11.38242188 -0.08789062 10.60546875 C-0.07951172 9.82816406 -0.07113281 9.05085937 -0.0625 8.25 C-0.05798828 7.45722656 -0.05347656 6.66445312 -0.04882812 5.84765625 C-0.03708565 3.89840492 -0.01915146 1.94919262 0 0 Z " fill="#4F4F4F" transform="translate(432,239)"/>
<path d="M0 0 C0.99 0 1.98 0 3 0 C3 0.66 3 1.32 3 2 C3.99 2.33 4.98 2.66 6 3 C5.27683594 3.88751953 5.27683594 3.88751953 4.5390625 4.79296875 C3.90742188 5.58316406 3.27578125 6.37335938 2.625 7.1875 C1.68527344 8.35345703 1.68527344 8.35345703 0.7265625 9.54296875 C-0.97807134 11.96879382 -2.01987906 14.21309045 -3 17 C-4.32 16.34 -5.64 15.68 -7 15 C-6.26420788 13.53444684 -5.51074874 12.07775513 -4.75 10.625 C-4.33234375 9.81289062 -3.9146875 9.00078125 -3.484375 8.1640625 C-1.85732025 5.79198795 -0.64613361 5.02905196 2 4 C1.34 2.68 0.68 1.36 0 0 Z " fill="#F2FBDB" transform="translate(262,178)"/>
<path d="M0 0 C3.03952713 4.5592907 5 8.47162419 5 14 C3.02 14 1.04 14 -1 14 C-1.88376862 9.91257012 -2.34972126 7.04916379 -1 3 C-0.67 3.33 -0.34 3.66 0 4 C0 2.68 0 1.36 0 0 Z " fill="#5E5E5E" transform="translate(316,248)"/>
<path d="M0 0 C2.64 0 5.28 0 8 0 C8 0.66 8 1.32 8 2 C6.02 2 4.04 2 2 2 C2.27617533 3.94074861 2.27617533 3.94074861 3 6 C3.99 6.66 4.98 7.32 6 8 C5.01 8 4.02 8 3 8 C3 10.31 3 12.62 3 15 C2.01 15 1.02 15 0 15 C0 10.05 0 5.1 0 0 Z " fill="#96A868" transform="translate(188,281)"/>
<path d="M0 0 C0.48210937 0.42152344 0.96421875 0.84304687 1.4609375 1.27734375 C2.09257812 1.82519531 2.72421875 2.37304688 3.375 2.9375 C4.00148437 3.48277344 4.62796875 4.02804688 5.2734375 4.58984375 C6.95632334 6.06958624 6.95632334 6.06958624 9 7 C9 7.66 9 8.32 9 9 C9.845625 9.268125 10.69125 9.53625 11.5625 9.8125 C15.13854067 11.0478595 18.53860908 12.476988 22 14 C22 14.66 22 15.32 22 16 C14.24349574 15.03043697 7.24763421 10.6837257 2 5 C0.5625 2.125 0.5625 2.125 0 0 Z " fill="#E5F8AE" transform="translate(227,199)"/>
<path d="M0 0 C0.66 1.32 1.32 2.64 2 4 C0.35 4.33 -1.3 4.66 -3 5 C-3.33 5.99 -3.66 6.98 -4 8 C-5.6875 9.75 -5.6875 9.75 -8 11 C-11.25 10.6875 -11.25 10.6875 -14 10 C-14.33 9.01 -14.66 8.02 -15 7 C-12.69 7 -10.38 7 -8 7 C-8 6.34 -8 5.68 -8 5 C-6.865625 4.731875 -5.73125 4.46375 -4.5625 4.1875 C-3.386875 3.795625 -2.21125 3.40375 -1 3 C-0.67 2.01 -0.34 1.02 0 0 Z " fill="#A7CD42" transform="translate(302,207)"/>
<path d="M0 0 C0.33 0 0.66 0 1 0 C1.6416966 5.69505736 2.12462322 11.26733196 2 17 C3.32 17 4.64 17 6 17 C6.33 16.01 6.66 15.02 7 14 C8.98 14 10.96 14 13 14 C8.66457495 17.32382587 6.52858726 18.12018668 1 18 C-0.9673374 14.71073629 -1.24447228 12.24428419 -1.1875 8.4375 C-1.18105469 7.48746094 -1.17460937 6.53742188 -1.16796875 5.55859375 C-1 3 -1 3 0 0 Z " fill="#B3CF67" transform="translate(281,194)"/>
<path d="M0 0 C0.66 0 1.32 0 2 0 C2.33 1.65 2.66 3.3 3 5 C2.01 5 1.02 5 0 5 C-1.42753023 6.5890036 -1.42753023 6.5890036 -2.75 8.5625 C-4.3046875 10.5078125 -4.3046875 10.5078125 -6 12 C-9.875 11.9375 -9.875 11.9375 -13 11 C-10.28003014 8.60002659 -8.32483824 7.09554066 -4.8125 6.0625 C-1.77048964 5.26933624 -1.77048964 5.26933624 -0.625 2.375 C-0.41875 1.59125 -0.2125 0.8075 0 0 Z " fill="#B1CD65" transform="translate(312,170)"/>
<path d="M0 0 C0.66 0 1.32 0 2 0 C2 0.66 2 1.32 2 2 C2.59095459 2.26119629 3.18190918 2.52239258 3.79077148 2.79150391 C6.13079784 4.07154927 7.54546745 5.38203857 9.34765625 7.3359375 C9.95287109 7.98820312 10.55808594 8.64046875 11.18164062 9.3125 C11.80232422 9.993125 12.42300781 10.67375 13.0625 11.375 C13.68705078 12.04789063 14.31160156 12.72078125 14.95507812 13.4140625 C17.80988039 16.5095578 20.51062667 19.59880772 23 23 C19.46183947 21.48968674 17.16633853 19.42406644 14.453125 16.71875 C13.60878906 15.87699219 12.76445312 15.03523438 11.89453125 14.16796875 C11.02183594 13.28753906 10.14914063 12.40710938 9.25 11.5 C8.36183594 10.61957031 7.47367188 9.73914063 6.55859375 8.83203125 C5.29982422 7.56939453 5.29982422 7.56939453 4.015625 6.28125 C3.24508789 5.50845703 2.47455078 4.73566406 1.68066406 3.93945312 C0 2 0 2 0 0 Z " fill="#393939" transform="translate(182,101)"/>
<path d="M0 0 C3.875 1.75 3.875 1.75 5 4 C3.35 4 1.7 4 0 4 C0 11.59 0 19.18 0 27 C-2.38784293 22.22431413 -3.15717808 20.06240081 -3.1875 14.75 C-3.20167969 13.63109375 -3.21585938 12.5121875 -3.23046875 11.359375 C-2.94387909 7.18196639 -1.8666348 3.7332696 0 0 Z " fill="#B1CA6D" transform="translate(218,171)"/>
<path d="M0 0 C0.66 0 1.32 0 2 0 C2 1.98 2 3.96 2 6 C-0.64 6 -3.28 6 -6 6 C-6 6.66 -6 7.32 -6 8 C-3.36 8 -0.72 8 2 8 C2 9.98 2 11.96 2 14 C1.67 14 1.34 14 1 14 C1 12.35 1 10.7 1 9 C-1.64 9 -4.28 9 -7 9 C-7.33 7.02 -7.66 5.04 -8 3 C-5.36 3 -2.72 3 0 3 C0 2.01 0 1.02 0 0 Z " fill="#6F6F6F" transform="translate(369,248)"/>
<path d="M0 0 C1.98 0.495 1.98 0.495 4 1 C4 4.3 4 7.6 4 11 C2.35 10.67 0.7 10.34 -1 10 C-1.125 3.375 -1.125 3.375 0 0 Z " fill="#EEEEEE" transform="translate(58,245)"/>
<path d="M0 0 C3.25945862 2.83888332 4.54511566 4.67859873 5 9 C5 9.66 5 10.32 5 11 C5.165 11.598125 5.33 12.19625 5.5 12.8125 C6.06057741 15.26502616 6.06965635 17.49237135 6 20 C2.83884224 18.63016497 2.0072908 18.0109362 0 15 C1.32 14.67 2.64 14.34 4 14 C3.34 13.01 2.68 12.02 2 11 C1.55888435 9.11845117 1.1890733 7.21937362 0.875 5.3125 C0.70742187 4.31863281 0.53984375 3.32476562 0.3671875 2.30078125 C0.24601563 1.54152344 0.12484375 0.78226563 0 0 Z " fill="#B3D45F" transform="translate(224,194)"/>
<path d="M0 0 C1.32 0 2.64 0 4 0 C5.75 2 5.75 2 7 4 C6.67 4.66 6.34 5.32 6 6 C7.65 6.33 9.3 6.66 11 7 C11 7.33 11 7.66 11 8 C9.56344146 8.08131463 8.1255517 8.13933559 6.6875 8.1875 C5.48673828 8.23970703 5.48673828 8.23970703 4.26171875 8.29296875 C2 8 2 8 0.1875 6.65625 C-1 5 -1 5 -0.6875 2.3125 C-0.460625 1.549375 -0.23375 0.78625 0 0 Z " fill="#535353" transform="translate(72,254)"/>
<path d="M0 0 C0.33 0.66 0.66 1.32 1 2 C1.66 2 2.32 2 3 2 C3.625 3.8125 3.625 3.8125 4 6 C3.01 7.485 3.01 7.485 2 9 C2.33 9.99 2.66 10.98 3 12 C1.02 12 -0.96 12 -3 12 C-2.68950274 10.56206608 -2.3765224 9.1246682 -2.0625 7.6875 C-1.88847656 6.88699219 -1.71445312 6.08648437 -1.53515625 5.26171875 C-1 3 -1 3 0 0 Z " fill="#4A4A4A" transform="translate(270,250)"/>
<path d="M0 0 C0.33 0 0.66 0 1 0 C1 7.59 1 15.18 1 23 C0.67 23 0.34 23 0 23 C-0.33 18.38 -0.66 13.76 -1 9 C-3.64 9 -6.28 9 -9 9 C-9 8.01 -9 7.02 -9 6 C-6.03 6 -3.06 6 0 6 C0 4.02 0 2.04 0 0 Z " fill="#E5E5E5" transform="translate(372,239)"/>
<path d="M0 0 C0.99 0 1.98 0 3 0 C5.29013653 3.4352048 5.17842973 4.985331 5 9 C3 5.25 3 5.25 3 3 C2.34 3 1.68 3 1 3 C0.9455548 5.20805524 0.90700717 7.41650554 0.875 9.625 C0.85179687 10.85476562 0.82859375 12.08453125 0.8046875 13.3515625 C0.9969572 16.94316041 1.69741444 19.66661175 3 23 C2.01 23 1.02 23 0 23 C-0.90992305 20.27023085 -1.12844593 18.64911026 -1.1328125 15.83984375 C-1.13410156 15.04642578 -1.13539063 14.25300781 -1.13671875 13.43554688 C-1.13285156 12.61119141 -1.12898437 11.78683594 -1.125 10.9375 C-1.12886719 10.10927734 -1.13273438 9.28105469 -1.13671875 8.42773438 C-1.13542969 7.63560547 -1.13414062 6.84347656 -1.1328125 6.02734375 C-1.13168457 5.30281006 -1.13055664 4.57827637 -1.12939453 3.83178711 C-1 2 -1 2 0 0 Z " fill="#EDF6D1" transform="translate(248,157)"/>
<path d="M0 0 C2 1.5 2 1.5 4 4 C4.35800135 6.75871627 4.18660165 9.20097524 4 12 C2.35 12 0.7 12 -1 12 C-1.02687279 10.18757948 -1.04633715 8.37504767 -1.0625 6.5625 C-1.07410156 5.55316406 -1.08570313 4.54382813 -1.09765625 3.50390625 C-1 1 -1 1 0 0 Z " fill="#3D3D3D" transform="translate(261,250)"/>
<path d="M0 0 C2 2 2 2 2.23046875 5.84375 C2.22647524 7.39589428 2.21170957 8.9480394 2.1875 10.5 C2.18685547 11.28503906 2.18621094 12.07007813 2.18554688 12.87890625 C2.14046848 18.71906304 2.14046848 18.71906304 1 21 C-0.27875 20.71125 -1.5575 20.4225 -2.875 20.125 C-3.59429687 19.96257812 -4.31359375 19.80015625 -5.0546875 19.6328125 C-7 19 -7 19 -9 17 C-6.03 17.33 -3.06 17.66 0 18 C0 12.06 0 6.12 0 0 Z " fill="#B5CF70" transform="translate(249,192)"/>
<path d="M0 0 C0.66 0 1.32 0 2 0 C2.66 2.64 3.32 5.28 4 8 C4.66 8 5.32 8 6 8 C6.66 9.65 7.32 11.3 8 13 C7.01 13.495 7.01 13.495 6 14 C2 8.5 2 8.5 2 4 C1.34 4 0.68 4 0 4 C0.33 8.62 0.66 13.24 1 18 C-1.02789118 13.94421765 -1.24682223 12.26484474 -1.1875 7.875 C-1.18105469 6.82054687 -1.17460937 5.76609375 -1.16796875 4.6796875 C-1 2 -1 2 0 0 Z " fill="#B1CC67" transform="translate(249,160)"/>
<path d="M0 0 C1.77641602 5.55130005 1.53883587 10.76365102 -1 16 C-1.99 16 -2.98 16 -4 16 C-4.66 14.02 -5.32 12.04 -6 10 C-4.68 10 -3.36 10 -2 10 C-2.33 9.01 -2.66 8.02 -3 7 C-2.07796291 4.63477442 -1.08301035 2.29598193 0 0 Z " fill="#535353" transform="translate(258,243)"/>
<path d="M0 0 C0 0.33 0 0.66 0 1 C-1.670625 1.433125 -1.670625 1.433125 -3.375 1.875 C-7.00291092 2.69241329 -7.00291092 2.69241329 -9 5 C-9.34377794 9.64100213 -9.11964808 11.76070385 -7 16 C-2.545 15.505 -2.545 15.505 2 15 C1.01 15.99 0.02 16.98 -1 18 C-6.93010942 17.78821038 -6.93010942 17.78821038 -9.69140625 15.75390625 C-12.24420284 12.33239679 -11.58395813 8.05452749 -11 4 C-8.21528739 -0.67831719 -5.14045738 -0.3954198 0 0 Z " fill="#F4F9E0" transform="translate(106,280)"/>
<path d="M0 0 C3.3 0.33 6.6 0.66 10 1 C10 2.32 10 3.64 10 5 C6.04 5 2.08 5 -2 5 C-1.67 3.68 -1.34 2.36 -1 1 C-0.67 1.33 -0.34 1.66 0 2 C0 1.34 0 0.68 0 0 Z " fill="#3A3A3A" transform="translate(92,256)"/>
<path d="M0 0 C0 3 0 3 -1.37695312 4.7175293 C-2.00537109 5.33023682 -2.63378906 5.94294434 -3.28125 6.57421875 C-3.95800781 7.24130859 -4.63476562 7.90839844 -5.33203125 8.59570312 C-6.04746094 9.28599609 -6.76289063 9.97628906 -7.5 10.6875 C-8.57314453 11.7403418 -8.57314453 11.7403418 -9.66796875 12.81445312 C-11.43879577 14.54986361 -13.21623456 16.2779073 -15 18 C-15.66 17.67 -16.32 17.34 -17 17 C-15.88200014 15.66079162 -14.75538103 14.32877444 -13.625 13 C-12.68527344 11.88625 -12.68527344 11.88625 -11.7265625 10.75 C-10.87191406 9.88375 -10.87191406 9.88375 -10 9 C-9.34 9 -8.68 9 -8 9 C-7.79375 8.443125 -7.5875 7.88625 -7.375 7.3125 C-5.44999226 4.07498698 -2.96149098 2.31768859 0 0 Z " fill="#303030" transform="translate(320,132)"/>
<path d="M0 0 C0.99 0 1.98 0 3 0 C3 0.99 3 1.98 3 3 C5.31 3.33 7.62 3.66 10 4 C10 4.33 10 4.66 10 5 C7.03 5 4.06 5 1 5 C1.33 6.98 1.66 8.96 2 11 C1.01 10.67 0.02 10.34 -1 10 C-1.02689216 8.52093108 -1.04634621 7.04172517 -1.0625 5.5625 C-1.07410156 4.73878906 -1.08570313 3.91507813 -1.09765625 3.06640625 C-1 1 -1 1 0 0 Z " fill="#E3E3E3" transform="translate(208,245)"/>
<path d="M0 0 C0 0.66 0 1.32 0 2 C-7.53681286 6.08183289 -13.42497896 7.74637514 -22 7 C-22 6.67 -22 6.34 -22 6 C-19.69 6 -17.38 6 -15 6 C-14.67 4.68 -14.34 3.36 -14 2 C-14 2.66 -14 3.32 -14 4 C-9.66602048 2.98873811 -4.24319667 0 0 0 Z " fill="#E9F8B9" transform="translate(296,208)"/>
<path d="M0 0 C3.36025535 4.18253378 4.92858846 8.56673543 6.75 13.5625 C7.07871094 14.42552734 7.40742188 15.28855469 7.74609375 16.17773438 C8.05160156 17.00724609 8.35710937 17.83675781 8.671875 18.69140625 C8.9512793 19.44623291 9.23068359 20.20105957 9.51855469 20.97875977 C10 23 10 23 9 26 C7.87468576 23.27096253 6.749738 20.54177495 5.625 17.8125 C5.14933594 16.65911133 5.14933594 16.65911133 4.6640625 15.48242188 C4.04755745 13.98611273 3.4332354 12.48890196 2.82128906 10.99072266 C2.15886556 9.38507424 1.47021213 7.79026145 0.7734375 6.19921875 C0 4 0 4 0 0 Z " fill="#363636" transform="translate(211,50)"/>
<path d="M0 0 C0.66 0 1.32 0 2 0 C2 4.29 2 8.58 2 13 C3.98 13 5.96 13 8 13 C8 13.66 8 14.32 8 15 C5.36 15 2.72 15 0 15 C0 10.05 0 5.1 0 0 Z " fill="#8D9F56" transform="translate(214,281)"/>
<path d="M0 0 C1.32 0.33 2.64 0.66 4 1 C4 3.97 4 6.94 4 10 C2.68 10.33 1.36 10.66 0 11 C0 7.37 0 3.74 0 0 Z " fill="#E4E4E4" transform="translate(164,245)"/>
<path d="M0 0 C1.98 0.99 1.98 0.99 4 2 C4 2.66 4 3.32 4 4 C5.32 4.33 6.64 4.66 8 5 C8 4.34 8 3.68 8 3 C7.67 2.67 7.34 2.34 7 2 C7.33 1.34 7.66 0.68 8 0 C9.32 0 10.64 0 12 0 C12 4 12 4 10.8125 5.75 C8.34151869 7.45412504 6.94957111 7.43164455 4 7 C1.6875 5.75 1.6875 5.75 0 4 C0 2.68 0 1.36 0 0 Z " fill="#3A3A3A" transform="translate(203,255)"/>
<path d="M0 0 C3.43752007 1.5277867 6.18953688 3.50181056 9 6 C9 6.66 9 7.32 9 8 C8.34 8 7.68 8 7 8 C7 8.99 7 9.98 7 11 C5.68 11 4.36 11 3 11 C2.8046875 9.01432292 2.609375 7.02864583 2.4140625 5.04296875 C2.07334609 2.70011858 2.07334609 2.70011858 0 0 Z " fill="#A6CD45" transform="translate(227,203)"/>
<path d="M0 0 C0.66 0 1.32 0 2 0 C2.28875 0.763125 2.5775 1.52625 2.875 2.3125 C3.96269013 5.15029308 3.96269013 5.15029308 6 8 C5.625 10.1875 5.625 10.1875 5 12 C1.125 10.25 1.125 10.25 0 8 C-0.13415472 5.3276379 -0.04318541 2.67749512 0 0 Z " fill="#A9CF44" transform="translate(249,164)"/>
<path d="M0 0 C0.66 0 1.32 0 2 0 C2 3.96 2 7.92 2 12 C3.98 12 5.96 12 8 12 C8 12.66 8 13.32 8 14 C5.36 14 2.72 14 0 14 C0 9.38 0 4.76 0 0 Z " fill="#8A9957" transform="translate(287,282)"/>
<path d="M0 0 C3.5 0.875 3.5 0.875 5.4375 2.625 C6.66717908 5.22902628 6.73723981 7.02812226 6.5 9.875 C2.5 5.125 2.5 5.125 2.5 2.875 C0.19 2.875 -2.12 2.875 -4.5 2.875 C-4.83 3.535 -5.16 4.195 -5.5 4.875 C-6.16 4.875 -6.82 4.875 -7.5 4.875 C-6.03836855 0.49010564 -4.55440788 -0.16265742 0 0 Z " fill="#9DAC73" transform="translate(236.5,281.125)"/>
<path d="M0 0 C1.65 0 3.3 0 5 0 C5.33 1.32 5.66 2.64 6 4 C5.34 4 4.68 4 4 4 C4.33 5.32 4.66 6.64 5 8 C2.03 7.505 2.03 7.505 -1 7 C-0.67 4.69 -0.34 2.38 0 0 Z " fill="#AAD046" transform="translate(263,161)"/>
<path d="M0 0 C2.64 0 5.28 0 8 0 C7.65120368 3.25543229 6.97866739 4.01873107 4.4375 6.25 C3.633125 6.8275 2.82875 7.405 2 8 C-0.1519437 4.77208445 -0.20086443 3.71599191 0 0 Z " fill="#3B3B3B" transform="translate(160,240)"/>
<path d="M0 0 C3.40004314 -0.35038613 6.61114949 -0.50992108 10 0 C13.0595638 3.0595638 13.86403046 4.98994057 14.4375 9.25 C14.293125 10.1575 14.14875 11.065 14 12 C13.01 12.66 12.02 13.32 11 14 C11.06960938 13.07767578 11.06960938 13.07767578 11.140625 12.13671875 C11.51129282 7.22503697 11.51129282 7.22503697 9.4375 3 C6.31587282 1.71933244 3.347104 1.32183692 0 1 C0 0.67 0 0.34 0 0 Z " fill="#F6FBE1" transform="translate(383,280)"/>
<path d="M0 0 C0.66 2.31 1.32 4.62 2 7 C0.68 7.33 -0.64 7.66 -2 8 C-5 4.375 -5 4.375 -5 1 C-2 0 -2 0 0 0 Z " fill="#515151" transform="translate(396,254)"/>
<path d="M0 0 C2 3 2 3 1.625 5.6875 C1.41875 6.450625 1.2125 7.21375 1 8 C0.01 8 -0.98 8 -2 8 C-2 8.66 -2 9.32 -2 10 C-0.02 10 1.96 10 4 10 C4 10.33 4 10.66 4 11 C1.69 11 -0.62 11 -3 11 C-2.8864371 9.35333797 -2.75882619 7.70763918 -2.625 6.0625 C-2.55539063 5.14597656 -2.48578125 4.22945312 -2.4140625 3.28515625 C-2.27742188 2.53105469 -2.14078125 1.77695313 -2 1 C-1.34 0.67 -0.68 0.34 0 0 Z " fill="#767676" transform="translate(129,248)"/>
<path d="M0 0 C1.32 0.33 2.64 0.66 4 1 C4.19622241 5.21878192 3.80230168 8.17010894 2 12 C1.34 12 0.68 12 0 12 C-1.625 10 -1.625 10 -3 8 C-1.36587557 6.29159719 -0.13093906 5.06546953 2 4 C2 3.34 2 2.68 2 2 C1.34 2 0.68 2 0 2 C0 1.34 0 0.68 0 0 Z " fill="#464646" transform="translate(462,241)"/>
<path d="M0 0 C0.33 1.65 0.66 3.3 1 5 C0.34 4.67 -0.32 4.34 -1 4 C-0.67 4.99 -0.34 5.98 0 7 C-0.99 7.495 -0.99 7.495 -2 8 C-2.33 7.01 -2.66 6.02 -3 5 C-3.99 4.67 -4.98 4.34 -6 4 C-6 3.34 -6 2.68 -6 2 C-7.32 1.67 -8.64 1.34 -10 1 C-6.78548731 -0.60725635 -3.56387464 -0.05748185 0 0 Z " fill="#3A3A3A" transform="translate(301,240)"/>
<path d="M0 0 C1.69141656 0.08963062 3.37959602 0.24577676 5.0625 0.4375 C6.44115234 0.59025391 6.44115234 0.59025391 7.84765625 0.74609375 C8.55792969 0.82988281 9.26820313 0.91367188 10 1 C10 1.66 10 2.32 10 3 C7.03 3 4.06 3 1 3 C1 3.66 1 4.32 1 5 C1.99 5.33 2.98 5.66 4 6 C1.69 5.67 -0.62 5.34 -3 5 C-1.125 1.125 -1.125 1.125 0 0 Z " fill="#B2CE6A" transform="translate(272,214)"/>
<path d="M0 0 C0.99 0.33 1.98 0.66 3 1 C3 2.32 3 3.64 3 5 C2.01 5.33 1.02 5.66 0 6 C-0.33 8.31 -0.66 10.62 -1 13 C-1.99 12.67 -2.98 12.34 -4 12 C-3.34 12 -2.68 12 -2 12 C-2.48578543 8.87709365 -2.9986012 6.00419641 -4 3 C-2.68 2.67 -1.36 2.34 0 2 C0 1.34 0 0.68 0 0 Z " fill="#3A3A3A" transform="translate(420,248)"/>
<path d="M0 0 C0.66 0 1.32 0 2 0 C2.33 0.66 2.66 1.32 3 2 C3.99 2.66 4.98 3.32 6 4 C6.1875 6.625 6.1875 6.625 6 9 C0.25 7.25 0.25 7.25 -2 5 C-1.34 5 -0.68 5 0 5 C0 3.35 0 1.7 0 0 Z " fill="#535353" transform="translate(74,245)"/>
<path d="M0 0 C1.32 0 2.64 0 4 0 C4 1.65 4 3.3 4 5 C3.01 5 2.02 5 1 5 C1.99 7.31 2.98 9.62 4 12 C2.68 12.33 1.36 12.66 0 13 C0 8.71 0 4.42 0 0 Z " fill="#F0F8D7" transform="translate(332,283)"/>
<path d="M0 0 C1.66611905 -0.042721 3.33382885 -0.04063832 5 0 C6 1 6 1 6.0625 3.5625 C6.041875 4.366875 6.02125 5.17125 6 6 C4.02 6 2.04 6 0 6 C0 4.02 0 2.04 0 0 Z " fill="#FDFEFB" transform="translate(233,286)"/>
<path d="M0 0 C0.33 0 0.66 0 1 0 C1 5.61 1 11.22 1 17 C-0.98 17 -2.96 17 -5 17 C-5 15.02 -5 13.04 -5 11 C-4.34 11 -3.68 11 -3 11 C-3 11.99 -3 12.98 -3 14 C-2.34 13.67 -1.68 13.34 -1 13 C-0.53045739 9.95418731 -0.53045739 9.95418731 -0.375 6.4375 C-0.30023438 5.23996094 -0.22546875 4.04242188 -0.1484375 2.80859375 C-0.09945313 1.88175781 -0.05046875 0.95492187 0 0 Z " fill="#4F4F4F" transform="translate(349,245)"/>
<path d="M0 0 C0.33 0.66 0.66 1.32 1 2 C1.66 2 2.32 2 3 2 C5.5393228 5.41831915 6.3636198 7.75776898 6 12 C5.01 12 4.02 12 3 12 C3 9.69 3 7.38 3 5 C1.02 5.99 1.02 5.99 -1 7 C-0.67 4.69 -0.34 2.38 0 0 Z " fill="#7E7E7E" transform="translate(272,242)"/>
<path d="M0 0 C2.4294516 3.6441774 2.16179575 5.71241272 2 10 C0.35 10 -1.3 10 -3 10 C-3 8.35 -3 6.7 -3 5 C-2.34 5 -1.68 5 -1 5 C-0.67 3.35 -0.34 1.7 0 0 Z " fill="#3C3C3C" transform="translate(144,252)"/>
<path d="M0 0 C4 2 4 2 6 4 C5.625 6.125 5.625 6.125 5 8 C4.67 7.01 4.34 6.02 4 5 C1.70366176 8.44450737 1.45983515 10.93812283 1 15 C0.67 15 0.34 15 0 15 C0 10.05 0 5.1 0 0 Z " fill="#626262" transform="translate(62,239)"/>
<path d="M0 0 C1.98 0 3.96 0 6 0 C5.44271087 3.34373475 4.64826111 6.03312999 3 9 C2.34 9 1.68 9 1 9 C1 8.01 1 7.02 1 6 C1.66 6 2.32 6 3 6 C3 5.34 3 4.68 3 4 C2.01 4 1.02 4 0 4 C0 2.68 0 1.36 0 0 Z " fill="#9A9A9A" transform="translate(378,245)"/>
<path d="M0 0 C0.66 0.99 1.32 1.98 2 3 C3.65 2.67 5.3 2.34 7 2 C7 2.99 7 3.98 7 5 C4.1875 7.75 4.1875 7.75 1 10 C0.01 9.67 -0.98 9.34 -2 9 C-1.34 9 -0.68 9 0 9 C0 6.03 0 3.06 0 0 Z " fill="#E9F6C4" transform="translate(258,205)"/>
<path d="M0 0 C1.65 0.33 3.3 0.66 5 1 C2 3 2 3 0 3 C0.18415432 5.94091587 0.18415432 5.94091587 1 9 C2.95163118 10.43637698 2.95163118 10.43637698 5 11 C2.625 11.125 2.625 11.125 0 11 C-2 9 -2 9 -2.25 6.0625 C-2 3 -2 3 0 0 Z " fill="#E8F1C9" transform="translate(254,283)"/>
<path d="M0 0 C1.65 0.33 3.3 0.66 5 1 C7.42857143 7.28571429 7.42857143 7.28571429 6 11 C3 4.25 3 4.25 3 2 C2.01 2 1.02 2 0 2 C-0.33 2.66 -0.66 3.32 -1 4 C-0.67 2.68 -0.34 1.36 0 0 Z " fill="#EAF2D6" transform="translate(272,280)"/>
<path d="M0 0 C1.41377341 2.63904371 2.37240135 5.07120629 3 8 C1.02 8.33 -0.96 8.66 -3 9 C-4.125 3.25 -4.125 3.25 -3 1 C-2.01 0.67 -1.02 0.34 0 0 Z " fill="#505050" transform="translate(133,242)"/>
<path d="M0 0 C0.66 0 1.32 0 2 0 C2.03738281 0.77085937 2.07476562 1.54171875 2.11328125 2.3359375 C2.17902344 3.33882813 2.24476563 4.34171875 2.3125 5.375 C2.37050781 6.37273437 2.42851562 7.37046875 2.48828125 8.3984375 C2.65714844 9.25695312 2.82601562 10.11546875 3 11 C3.99 11.66 4.98 12.32 6 13 C4.02 13 2.04 13 0 13 C0 8.71 0 4.42 0 0 Z " fill="#E1EBC9" transform="translate(216,281)"/>
<path d="M0 0 C1.85776765 3.13498292 2.20140476 5.37471432 2 9 C0.02 9.99 0.02 9.99 -2 11 C-2.96891192 5.62694301 -2.96891192 5.62694301 -3 3 C-1.5625 1 -1.5625 1 0 0 Z " fill="#383838" transform="translate(172,245)"/>
<path d="M0 0 C1.5 1.0625 1.5 1.0625 3 3 C3.1875 6.6875 3.1875 6.6875 3 10 C2.01 10.495 2.01 10.495 1 11 C-1.13562754 8.86437246 -1.63318342 7.93453261 -2 5 C-1.34 4.34 -0.68 3.68 0 3 C0 2.01 0 1.02 0 0 Z " fill="#4F4F4F" transform="translate(386,240)"/>
<path d="M0 0 C0.99 0 1.98 0 3 0 C3 0.66 3 1.32 3 2 C3.99 2 4.98 2 6 2 C5.67 3.65 5.34 5.3 5 7 C3.68 7 2.36 7 1 7 C0.67 4.69 0.34 2.38 0 0 Z " fill="#9F9F9F" transform="translate(292,242)"/>
<path d="M0 0 C0 3 0 3 -1 6 C-0.34 6 0.32 6 1 6 C0.67 6.99 0.34 7.98 0 9 C-0.99 9.33 -1.98 9.66 -3 10 C-3 9.01 -3 8.02 -3 7 C-4.32 6.67 -5.64 6.34 -7 6 C-4.69 4.02 -2.38 2.04 0 0 Z " fill="#B0CF63" transform="translate(266,208)"/>
<path d="M0 0 C0.99 0.33 1.98 0.66 3 1 C3 3.31 3 5.62 3 8 C1.68 8 0.36 8 -1 8 C-1.04241723 5.66705225 -1.04092937 3.33297433 -1 1 C-0.67 0.67 -0.34 0.34 0 0 Z " fill="#3C3C3C" transform="translate(300,253)"/>
<path d="M0 0 C0.99 0.33 1.98 0.66 3 1 C3 2.65 3 4.3 3 6 C1.125 6.625 1.125 6.625 -1 7 C-1.66 6.34 -2.32 5.68 -3 5 C-2.625 2.875 -2.625 2.875 -2 1 C-1.67 1.33 -1.34 1.66 -1 2 C-0.67 1.34 -0.34 0.68 0 0 Z " fill="#AECC56" transform="translate(269,162)"/>
<path d="M0 0 C0.99 0 1.98 0 3 0 C3.98120464 3.05263664 3.98120464 4.94736336 3 8 C2.01 8 1.02 8 0 8 C-1.125 2.25 -1.125 2.25 0 0 Z " fill="#AEC080" transform="translate(272,282)"/>
<path d="M0 0 C2.49055871 3.76435592 2.03090984 6.86617377 1.625 11.25 C1.51414063 12.51328125 1.40328125 13.7765625 1.2890625 15.078125 C1.19367187 16.04234375 1.09828125 17.0065625 1 18 C0.67 18 0.34 18 0 18 C-1.33257403 5.33029613 -1.33257403 5.33029613 0 0 Z " fill="#D7D7D7" transform="translate(49,244)"/>
<path d="M0 0 C1.98 0 3.96 0 6 0 C6.33 1.65 6.66 3.3 7 5 C4.69 4.67 2.38 4.34 0 4 C0 2.68 0 1.36 0 0 Z " fill="#3B3B3B" transform="translate(380,240)"/>
<path d="M0 0 C2.31 0 4.62 0 7 0 C7 1.32 7 2.64 7 4 C4.36 4 1.72 4 -1 4 C-0.67 2.68 -0.34 1.36 0 0 Z " fill="#3D3D3D" transform="translate(330,240)"/>
<path d="M0 0 C-5.24258516 3.11464243 -10.04675579 5.60668753 -16 7 C-16 6.34 -16 5.68 -16 5 C-14.09118566 3.96455826 -12.17260796 2.94709915 -10.25 1.9375 C-8.64898437 1.08478516 -8.64898437 1.08478516 -7.015625 0.21484375 C-3.97406463 -1.01044806 -2.95106435 -1.25348607 0 0 Z " fill="#F6FDDE" transform="translate(308,176)"/>
<path d="M0 0 C0.36923077 6.4 0.36923077 6.4 -1.5 9.4375 C-1.995 9.953125 -2.49 10.46875 -3 11 C-5.97 10.505 -5.97 10.505 -9 10 C-9 9.67 -9 9.34 -9 9 C-7.35 8.67 -5.7 8.34 -4 8 C-3.814375 6.2984375 -3.814375 6.2984375 -3.625 4.5625 C-3.41875 3.386875 -3.2125 2.21125 -3 1 C-1 0 -1 0 0 0 Z " fill="#A0AF70" transform="translate(395,285)"/>
<path d="M0 0 C0.99 0.33 1.98 0.66 3 1 C2.34 1 1.68 1 1 1 C0.87625 1.86625 0.7525 2.7325 0.625 3.625 C0.01941879 6.89513853 -0.88306035 9.87256899 -2 13 C-2.99 12.67 -3.98 12.34 -5 12 C-5 11.34 -5 10.68 -5 10 C-4.34 10 -3.68 10 -3 10 C-2.87625 9.0925 -2.7525 8.185 -2.625 7.25 C-2.07890323 4.41029677 -1.42736197 2.47409409 0 0 Z " fill="#9AAE69" transform="translate(129,281)"/>
<path d="M0 0 C0.33 0 0.66 0 1 0 C1 2.64 1 5.28 1 8 C-0.98 8 -2.96 8 -5 8 C-5 6.02 -5 4.04 -5 2 C-3.68 2.33 -2.36 2.66 -1 3 C-0.67 4.32 -0.34 5.64 0 7 C0 4.69 0 2.38 0 0 Z " fill="#494949" transform="translate(419,254)"/>
<path d="M0 0 C2.475 0.495 2.475 0.495 5 1 C5 1.66 5 2.32 5 3 C2.525 2.01 2.525 2.01 0 1 C0 0.67 0 0.34 0 0 Z M-3 3 C-1.02 3 0.96 3 3 3 C3 3.99 3 4.98 3 6 C0.50907189 7.24546405 -0.41080733 6.7767578 -3 6 C-3 5.01 -3 4.02 -3 3 Z " fill="#8D8D8D" transform="translate(459,242)"/>
<path d="M0 0 C2.64 0 5.28 0 8 0 C8 0.66 8 1.32 8 2 C9.32 2.66 10.64 3.32 12 4 C8.96663814 4.22893297 6.02534949 4.36475845 3 4 C0.9375 2 0.9375 2 0 0 Z " fill="#A8CD41" transform="translate(236,214)"/>
<path d="M0 0 C0.66 0.33 1.32 0.66 2 1 C2.09765625 7.15234375 2.09765625 7.15234375 2 9 C1 10 1 10 -1.5625 10.0625 C-2.366875 10.041875 -3.17125 10.02125 -4 10 C-4.33 9.34 -4.66 8.68 -5 8 C-3.35 8 -1.7 8 0 8 C0 5.36 0 2.72 0 0 Z " fill="#F4FBDC" transform="translate(105,284)"/>
<path d="M0 0 C3 1 3 1 4.203125 2.890625 C7.05556985 9.31926936 7.05556985 9.31926936 6.75 13.0625 C6.5025 13.701875 6.255 14.34125 6 15 C3.99706653 11.99559979 3.50728374 10.29006055 2.875 6.8125 C2.70742188 5.91144531 2.53984375 5.01039063 2.3671875 4.08203125 C2.24601562 3.39496094 2.12484375 2.70789063 2 2 C1.01 1.67 0.02 1.34 -1 1 C-0.67 0.67 -0.34 0.34 0 0 Z " fill="#EBF2D8" transform="translate(352,280)"/>
<path d="M0 0 C0 1.98 0 3.96 0 6 C-1.65 6 -3.3 6 -5 6 C-5 4.35 -5 2.7 -5 1 C-2 0 -2 0 0 0 Z " fill="#434343" transform="translate(138,256)"/>
<path d="M0 0 C0.33 0 0.66 0 1 0 C1 5.61 1 11.22 1 17 C0.67 17 0.34 17 0 17 C-1.66517133 10.63392191 -2.42650927 6.20107925 0 0 Z " fill="#F1F1F1" transform="translate(304,244)"/>
<path d="M0 0 C0.66 0.33 1.32 0.66 2 1 C2 1.99 2 2.98 2 4 C0.67732273 5.01405257 -0.65724831 6.01268258 -2 7 C-3.2516467 9.08334635 -3.2516467 9.08334635 -4 11 C-4.35233161 5.62694301 -4.35233161 5.62694301 -4 3 C-2 1 -2 1 0 0 Z " fill="#3C3C3C" transform="translate(205,243)"/>
<path d="M0 0 C1.58502671 3.17005342 1.60385067 6.49124878 2 10 C-1.875 8.125 -1.875 8.125 -3 7 C-3.25 4.5625 -3.25 4.5625 -3 2 C-2.01 1.34 -1.02 0.68 0 0 Z " fill="#474747" transform="translate(394,242)"/>
<path d="M0 0 C0.66 0 1.32 0 2 0 C2.25 3.3125 2.25 3.3125 2 7 C0.3125 8.9375 0.3125 8.9375 -2 10 C-4.75 10.1875 -4.75 10.1875 -7 10 C-6.38125 9.71125 -5.7625 9.4225 -5.125 9.125 C-2.86674235 8.06279958 -2.86674235 8.06279958 -1 6 C-0.60235737 4.01178687 -0.26224651 2.01055661 0 0 Z " fill="#8B9F58" transform="translate(108,286)"/>
<path d="M0 0 C3.00617269 3.00617269 2.59585316 5.82381598 3 10 C3.66 10 4.32 10 5 10 C5 10.99 5 11.98 5 13 C4.34 13 3.68 13 3 13 C1.24905885 10.37358828 0.54725362 8.89308789 -0.1875 5.9375 C-0.36667969 5.24527344 -0.54585938 4.55304688 -0.73046875 3.83984375 C-1 2 -1 2 0 0 Z " fill="#8CA158" transform="translate(121,283)"/>
<path d="M0 0 C1.32 0 2.64 0 4 0 C3.67 2.31 3.34 4.62 3 7 C2.01 7 1.02 7 0 7 C0 4.69 0 2.38 0 0 Z " fill="#FAFEFB" transform="translate(387,286)"/>
<path d="M0 0 C0.66 0.33 1.32 0.66 2 1 C2 2.65 2 4.3 2 6 C0.35 6 -1.3 6 -3 6 C-3 4.35 -3 2.7 -3 1 C-2.01 0.67 -1.02 0.34 0 0 Z " fill="#3F3F3F" transform="translate(223,256)"/>
<path d="M0 0 C1.32 0.33 2.64 0.66 4 1 C3.67 2.65 3.34 4.3 3 6 C1.35 6 -0.3 6 -2 6 C-1.34 4.02 -0.68 2.04 0 0 Z " fill="#3D3D3D" transform="translate(183,256)"/>
<path d="M0 0 C2.46313739 1.82748903 3.83428618 3.22976216 4.48828125 6.26953125 C4.72518293 8.51479346 4.90361349 10.74455578 5 13 C4.71125 12.360625 4.4225 11.72125 4.125 11.0625 C3.17176549 8.84793921 3.17176549 8.84793921 1 8 C0.26924352 5.6859378 -0.40138258 3.35171131 -1 1 C-0.67 0.67 -0.34 0.34 0 0 Z " fill="#656565" transform="translate(170,240)"/>
<path d="M0 0 C2.31 0.33 4.62 0.66 7 1 C7 1.99 7 2.98 7 4 C6.67 4 6.34 4 6 4 C5.01 4.495 5.01 4.495 4 5 C2.32345271 4.72057545 0.65391846 4.39171753 -1 4 C-0.67 2.68 -0.34 1.36 0 0 Z " fill="#383838" transform="translate(226,240)"/>
<path d="M0 0 C3.125 -0.1875 3.125 -0.1875 6 0 C5 2 5 2 3.1875 2.8125 C0.34801372 4.35393541 -1.10192934 6.42404696 -3 9 C-2.5020163 5.26512223 -2.12508244 3.18762365 0 0 Z " fill="#575757" transform="translate(127,239)"/>
<path d="M0 0 C-0.50797009 4.3177458 -1.19682779 8.03302114 -3 12 C-3.33 12 -3.66 12 -4 12 C-3.88648483 10.18674449 -3.75887039 8.37436643 -3.625 6.5625 C-3.55539062 5.55316406 -3.48578125 4.54382813 -3.4140625 3.50390625 C-3.27742188 2.67761719 -3.14078125 1.85132813 -3 1 C-1 0 -1 0 0 0 Z " fill="#B3CF67" transform="translate(316,189)"/>
<path d="M0 0 C0.66 0 1.32 0 2 0 C2 0.66 2 1.32 2 2 C2.5775 2.226875 3.155 2.45375 3.75 2.6875 C6.5663661 4.33038023 8.08077114 6.39533227 10 9 C7 9 7 9 5.17578125 7.5390625 C4.56089844 6.90742187 3.94601563 6.27578125 3.3125 5.625 C2.68988281 4.99851562 2.06726563 4.37203125 1.42578125 3.7265625 C0 2 0 2 0 0 Z " fill="#6B6B6B" transform="translate(182,101)"/>
<path d="M0 0 C0.66 0 1.32 0 2 0 C2.4125 1.11375 2.825 2.2275 3.25 3.375 C4.35546516 5.99320695 4.74880787 6.83493089 7.1875 8.4375 C7.785625 8.623125 8.38375 8.80875 9 9 C6.1875 9.25 6.1875 9.25 3 9 C0.532661 6.7793949 0.03847554 5.56430797 -0.1875 2.25 C-0.125625 1.5075 -0.06375 0.765 0 0 Z " fill="#879956" transform="translate(167,287)"/>
<path d="M0 0 C0 0.99 0 1.98 0 3 C-1.11375 2.79375 -2.2275 2.5875 -3.375 2.375 C-4.57125 2.25125 -5.7675 2.1275 -7 2 C-7.66 2.66 -8.32 3.32 -9 4 C-9 2.68 -9 1.36 -9 0 C-5.93109813 -1.53445094 -3.29905734 -0.54984289 0 0 Z " fill="#9CA773" transform="translate(261,282)"/>
<path d="M0 0 C1.13757948 4.55031791 0.4283779 6.63084406 -1 11 C-2.32 10.34 -3.64 9.68 -5 9 C-3.35 6.03 -1.7 3.06 0 0 Z " fill="#ECF7CD" transform="translate(260,184)"/>
<path d="M0 0 C0.66 0 1.32 0 2 0 C0.68139111 4.61513112 -1.21355437 8.09897612 -4 12 C-4.33 11.01 -4.66 10.02 -5 9 C-4.67 8.34 -4.34 7.68 -4 7 C-3.34 7 -2.68 7 -2 7 C-1.855625 6.030625 -1.71125 5.06125 -1.5625 4.0625 C-1 1 -1 1 0 0 Z " fill="#F4FBDA" transform="translate(279,160)"/>
<path d="M0 0 C0.33 0 0.66 0 1 0 C1 4.62 1 9.24 1 14 C0.34 14 -0.32 14 -1 14 C-1.66 12.02 -2.32 10.04 -3 8 C-2.01 8.33 -1.02 8.66 0 9 C0 6.03 0 3.06 0 0 Z " fill="#829551" transform="translate(374,282)"/>
<path d="M0 0 C0.33 0 0.66 0 1 0 C1 3.96 1 7.92 1 12 C-1.97 11.505 -1.97 11.505 -5 11 C-4.02149805 9.97895449 -3.02019573 8.9793879 -2 8 C-1.67 8 -1.34 8 -1 8 C-0.67 5.36 -0.34 2.72 0 0 Z " fill="#727272" transform="translate(217,250)"/>
<path d="M0 0 C1.5 1.25 1.5 1.25 3 3 C3 4.32 3 5.64 3 7 C1.02 7 -0.96 7 -3 7 C-3 6.34 -3 5.68 -3 5 C-2.34 5 -1.68 5 -1 5 C-0.67 3.35 -0.34 1.7 0 0 Z " fill="#494949" transform="translate(283,255)"/>
<path d="M0 0 C0.66 0.33 1.32 0.66 2 1 C0.25 5.875 0.25 5.875 -2 7 C-2.99 6.01 -3.98 5.02 -5 4 C-4.34 4 -3.68 4 -3 4 C-2.67 3.01 -2.34 2.02 -2 1 C-1.34 0.67 -0.68 0.34 0 0 Z " fill="#3B3B3B" transform="translate(385,248)"/>
<path d="M0 0 C0.33 0 0.66 0 1 0 C2.23076923 6.4 2.23076923 6.4 1.0625 9.4375 C0.711875 9.953125 0.36125 10.46875 0 11 C-1.32 10.01 -2.64 9.02 -4 8 C-3 6 -3 6 -1 5 C-0.34444881 2.47266765 -0.34444881 2.47266765 0 0 Z " fill="#515151" transform="translate(280,240)"/>
<path d="M0 0 C0.99 0 1.98 0 3 0 C3 2.64 3 5.28 3 8 C2.01 8.495 2.01 8.495 1 9 C-0.4783226 6.04335481 -0.06032783 3.25770263 0 0 Z " fill="#3C3C3C" transform="translate(445,240)"/>
<path d="M0 0 C0.33 0 0.66 0 1 0 C1 3.3 1 6.6 1 10 C-0.32 10 -1.64 10 -3 10 C-2.01 6.7 -1.02 3.4 0 0 Z " fill="#DDECBE" transform="translate(129,286)"/>
<path d="M0 0 C1.32 0.33 2.64 0.66 4 1 C3.01 1 2.02 1 1 1 C1 3.97 1 6.94 1 10 C-2.875 5.25 -2.875 5.25 -4 3 C-3.01 3 -2.02 3 -1 3 C-0.67 2.01 -0.34 1.02 0 0 Z " fill="#F4FBDD" transform="translate(372,280)"/>
<path d="M0 0 C0.66 0 1.32 0 2 0 C2 2.31 2 4.62 2 7 C0.35 7 -1.3 7 -3 7 C-2.67 5.68 -2.34 4.36 -2 3 C-2 3.66 -2 4.32 -2 5 C-1.34 5 -0.68 5 0 5 C-0.33 4.01 -0.66 3.02 -1 2 C-0.67 1.34 -0.34 0.68 0 0 Z " fill="#3C3C3C" transform="translate(249,255)"/>
<path d="M0 0 C0.556875 0.28875 1.11375 0.5775 1.6875 0.875 C4.08494645 2.0413253 6.51596939 3.0339881 9 4 C5.86501708 5.85776765 3.62528568 6.20140476 0 6 C0 4.02 0 2.04 0 0 Z " fill="#B3CF62" transform="translate(285,214)"/>
<path d="M0 0 C0.75 1.6875 0.75 1.6875 1 4 C-0.9375 6.75 -0.9375 6.75 -3 9 C-4.32 8.34 -5.64 7.68 -7 7 C-6.38125 6.938125 -5.7625 6.87625 -5.125 6.8125 C-2.73182415 6.17775641 -2.73182415 6.17775641 -1.8125 3.5 C-1.544375 2.675 -1.27625 1.85 -1 1 C-0.67 0.67 -0.34 0.34 0 0 Z " fill="#EBF7C8" transform="translate(271,210)"/>
<path d="M0 0 C2 2 2 2 2.125 4.625 C2.08375 5.40875 2.0425 6.1925 2 7 C0.02 7.99 0.02 7.99 -2 9 C-1.34 6.03 -0.68 3.06 0 0 Z " fill="#95A960" transform="translate(320,287)"/>
<path d="M0 0 C0 0.66 0 1.32 0 2 C-1.65 2 -3.3 2 -5 2 C-5.66 3.65 -6.32 5.3 -7 7 C-7.33 7 -7.66 7 -8 7 C-7.74438677 4.6568787 -7.40729228 2.32156597 -7 0 C-4.3333581 -1.33332095 -2.83319697 -0.67102033 0 0 Z " fill="#E7F1C7" transform="translate(177,284)"/>
<path d="M0 0 C2 1.25 2 1.25 4 3 C4 4.32 4 5.64 4 7 C2.35 6.67 0.7 6.34 -1 6 C-0.67 4.02 -0.34 2.04 0 0 Z " fill="#3F3F3F" transform="translate(317,255)"/>
<path d="M0 0 C2.475 0.495 2.475 0.495 5 1 C5 1.66 5 2.32 5 3 C5.66 3.33 6.32 3.66 7 4 C4 5 4 5 1.8125 4.0625 C1.214375 3.711875 0.61625 3.36125 0 3 C0 2.01 0 1.02 0 0 Z " fill="#DADADA" transform="translate(76,244)"/>
<path d="M0 0 C3.3 0.33 6.6 0.66 10 1 C9.67 1.66 9.34 2.32 9 3 C6.36 3 3.72 3 1 3 C0.67 2.01 0.34 1.02 0 0 Z " fill="#9FAD73" transform="translate(402,293)"/>
<path d="M0 0 C0.33 0 0.66 0 1 0 C0.6875 3.375 0.6875 3.375 0 7 C-0.99 7.66 -1.98 8.32 -3 9 C-4.32 8.34 -5.64 7.68 -7 7 C-5.824375 6.6596875 -5.824375 6.6596875 -4.625 6.3125 C-1.78125 5.21875 -1.78125 5.21875 -0.6875 2.375 C-0.460625 1.59125 -0.23375 0.8075 0 0 Z " fill="#8DA355" transform="translate(241,287)"/>
<path d="M0 0 C2.95183101 2.95183101 3.08663988 5.95511947 4 10 C2.68 10 1.36 10 0 10 C0 6.7 0 3.4 0 0 Z " fill="#E7F2C8" transform="translate(120,286)"/>
<path d="M0 0 C0.66 0 1.32 0 2 0 C2.33 1.98 2.66 3.96 3 6 C1.35 6 -0.3 6 -2 6 C-1.34 4.02 -0.68 2.04 0 0 Z " fill="#BED08F" transform="translate(351,286)"/>
<path d="M0 0 C0.99 0.33 1.98 0.66 3 1 C2.525625 1.37125 2.05125 1.7425 1.5625 2.125 C-0.52205802 4.62646962 -0.64621491 6.81593418 -1 10 C-1.66 9.67 -2.32 9.34 -3 9 C-3.36923077 3.46153846 -3.36923077 3.46153846 -1.5 1.125 C-1.005 0.75375 -0.51 0.3825 0 0 Z " fill="#F0F7DB" transform="translate(251,281)"/>
<path d="M0 0 C3 0.25 3 0.25 5 2.25 C4.625 4.375 4.625 4.375 4 6.25 C4 5.26 4 4.27 4 3.25 C1.03 2.92 -1.94 2.59 -5 2.25 C-3 0.25 -3 0.25 0 0 Z " fill="#FBFDEA" transform="translate(257,278.75)"/>
<path d="M0 0 C0.99 0.66 1.98 1.32 3 2 C2.67 3.65 2.34 5.3 2 7 C0.68 6.67 -0.64 6.34 -2 6 C-1.67 5.34 -1.34 4.68 -1 4 C-1.66 3.67 -2.32 3.34 -3 3 C-3 2.34 -3 1.68 -3 1 C-2.01 0.67 -1.02 0.34 0 0 Z " fill="#484848" transform="translate(403,250)"/>
<path d="M0 0 C1.98 0 3.96 0 6 0 C6.33 2.31 6.66 4.62 7 7 C6.01 7 5.02 7 4 7 C4 5.02 4 3.04 4 1 C2.68 0.67 1.36 0.34 0 0 Z " fill="#686868" transform="translate(306,239)"/>
<path d="M0 0 C0.94875 0.04125 1.8975 0.0825 2.875 0.125 C-1.875 4.125 -1.875 4.125 -4.125 4.125 C-4.455 5.445 -4.785 6.765 -5.125 8.125 C-5.25 5.25 -5.25 5.25 -5.125 2.125 C-3.125 0.125 -3.125 0.125 0 0 Z " fill="#595959" transform="translate(395.125,239.875)"/>
<path d="M0 0 C1.12588014 0.95729916 2.2506715 1.91587895 3.375 2.875 C4.00148437 3.40867188 4.62796875 3.94234375 5.2734375 4.4921875 C6.55836651 5.61432007 7.79371975 6.79371975 9 8 C8.01 8.33 7.02 8.66 6 9 C4.99406757 7.8803014 3.9954151 6.7540588 3 5.625 C2.443125 4.99851563 1.88625 4.37203125 1.3125 3.7265625 C0 2 0 2 0 0 Z " fill="#CEED84" transform="translate(227,199)"/>
<path d="M0 0 C1.32 0 2.64 0 4 0 C4 1.65 4 3.3 4 5 C2.68 5 1.36 5 0 5 C0 3.35 0 1.7 0 0 Z " fill="#F5FDDE" transform="translate(315,289)"/>
<path d="M0 0 C1.2065625 0.0309375 1.2065625 0.0309375 2.4375 0.0625 C2.7675 1.0525 3.0975 2.0425 3.4375 3.0625 C2.65375 3.02125 1.87 2.98 1.0625 2.9375 C-1.72366119 2.77521266 -1.72366119 2.77521266 -3.5625 5.0625 C-3.5625 0.08689024 -3.5625 0.08689024 0 0 Z " fill="#98A46E" transform="translate(407.5625,280.9375)"/>
<path d="M0 0 C2.97 0.495 2.97 0.495 6 1 C5.67 1.99 5.34 2.98 5 4 C3.35 3.67 1.7 3.34 0 3 C0 2.01 0 1.02 0 0 Z " fill="#D5D5D5" transform="translate(396,253)"/>
<path d="M0 0 C1.875 0.3125 1.875 0.3125 4 1 C6 4 6 4 5.625 6.1875 C5.41875 6.785625 5.2125 7.38375 5 8 C4.67 7.01 4.34 6.02 4 5 C3.01 4.67 2.02 4.34 1 4 C1.33 3.01 1.66 2.02 2 1 C1.34 0.67 0.68 0.34 0 0 Z " fill="#393939" transform="translate(78,249)"/>
<path d="M0 0 C4.55384615 -0.36923077 4.55384615 -0.36923077 6.8125 1.5 C7.204375 1.995 7.59625 2.49 8 3 C5.39417629 3.93065133 4.35801776 4.14917407 1.75 3.0625 C1.1725 2.711875 0.595 2.36125 0 2 C0 1.34 0 0.68 0 0 Z " fill="#E0E0E0" transform="translate(396,245)"/>
<path d="M0 0 C0 0.66 0 1.32 0 2 C-5.2734375 5.22265625 -5.2734375 5.22265625 -7 6 C-7.66 5.67 -8.32 5.34 -9 5 C-2.87096774 0 -2.87096774 0 0 0 Z " fill="#B3CF69" transform="translate(294,183)"/>
<path d="M0 0 C2.475 0.99 2.475 0.99 5 2 C5.33 4.31 5.66 6.62 6 9 C3.59927045 6.11912454 1.52708963 3.43595166 0 0 Z " fill="#5E5E5E" transform="translate(81,249)"/>
<path d="M0 0 C0.33 0.66 0.66 1.32 1 2 C1.66 2 2.32 2 3 2 C3.33 3.98 3.66 5.96 4 8 C2.68 7.34 1.36 6.68 0 6 C0 4.02 0 2.04 0 0 Z " fill="#404040" transform="translate(70,242)"/>
<path d="M0 0 C1.65 0 3.3 0 5 0 C4.67 0.99 4.34 1.98 4 3 C3.67 2.67 3.34 2.34 3 2 C2.01 3.485 2.01 3.485 1 5 C0.01 4.67 -0.98 4.34 -2 4 C-1.34 2.68 -0.68 1.36 0 0 Z " fill="#515151" transform="translate(315,240)"/>
<path d="M0 0 C-0.66 1.32 -1.32 2.64 -2 4 C-3.98 4 -5.96 4 -8 4 C-8 3.34 -8 2.68 -8 2 C-4.77208445 -0.1519437 -3.71599191 -0.20086443 0 0 Z " fill="#3A3A3A" transform="translate(459,258)"/>
<path d="M0 0 C0.33 0 0.66 0 1 0 C1 2.31 1 4.62 1 7 C-0.98 7.99 -0.98 7.99 -3 9 C-3.99 8.34 -4.98 7.68 -6 7 C-4.02 6.67 -2.04 6.34 0 6 C0 4.02 0 2.04 0 0 Z " fill="#4D4D4D" transform="translate(406,252)"/>
<path d="M0 0 C0.66 0 1.32 0 2 0 C2 1.98 2 3.96 2 6 C-0.31 6.33 -2.62 6.66 -5 7 C-4.0409375 6.6596875 -4.0409375 6.6596875 -3.0625 6.3125 C-0.72806339 5.14749104 -0.72806339 5.14749104 -0.25 2.375 C-0.1675 1.59125 -0.085 0.8075 0 0 Z " fill="#353535" transform="translate(404,252)"/>
<path d="M0 0 C1.98 0.495 1.98 0.495 4 1 C3.67 2.32 3.34 3.64 3 5 C1.68 5 0.36 5 -1 5 C-0.67 3.35 -0.34 1.7 0 0 Z " fill="#3C3C3C" transform="translate(185,247)"/>
<path d="M0 0 C0.33 1.32 0.66 2.64 1 4 C-0.65 5.32 -2.3 6.64 -4 8 C-4.66 7.67 -5.32 7.34 -6 7 C-5.01 6.67 -4.02 6.34 -3 6 C-1.84478498 3.52869082 -1.84478498 3.52869082 -1 1 C-0.67 0.67 -0.34 0.34 0 0 Z " fill="#EFF8D0" transform="translate(310,205)"/>
<path d="M0 0 C0.33 0 0.66 0 1 0 C1 2.64 1 5.28 1 8 C-0.98 8 -2.96 8 -5 8 C-4.67 7.01 -4.34 6.02 -4 5 C-2.68 5.66 -1.36 6.32 0 7 C0 4.69 0 2.38 0 0 Z " fill="#646464" transform="translate(293,254)"/>
<path d="M0 0 C0 1.32 0 2.64 0 4 C-2.31 3.67 -4.62 3.34 -7 3 C-6.67 2.34 -6.34 1.68 -6 1 C-3.911361 0.32624548 -2.19636905 0 0 0 Z " fill="#3A3A3A" transform="translate(370,257)"/>
<path d="M0 0 C0.99 0.33 1.98 0.66 3 1 C2.67 2.32 2.34 3.64 2 5 C1.01 5 0.02 5 -1 5 C-0.67 3.35 -0.34 1.7 0 0 Z " fill="#3E3E3E" transform="translate(195,257)"/>
<path d="M0 0 C0.66 0.33 1.32 0.66 2 1 C2 3.31 2 5.62 2 8 C1.01 7.67 0.02 7.34 -1 7 C-0.67 4.69 -0.34 2.38 0 0 Z " fill="#686868" transform="translate(234,242)"/>
<path d="M0 0 C0.66 0 1.32 0 2 0 C2.1875 2.375 2.1875 2.375 2 5 C1.01 5.66 0.02 6.32 -1 7 C-1.04254356 5.00045254 -1.04080783 2.99958364 -1 1 C-0.67 0.67 -0.34 0.34 0 0 Z " fill="#3C3C3C" transform="translate(278,240)"/>
<path d="M0 0 C3.81684226 1.55500981 6.19195732 4.03595495 9 7 C5.21616321 6.07506212 3.43306306 5.60628829 1.125 2.375 C0.75375 1.59125 0.3825 0.8075 0 0 Z " fill="#A8CB55" transform="translate(227,203)"/>
</svg>
